G04 EAGLE Gerber RS-274X export*
G75*
%MOMM*%
%FSLAX34Y34*%
%LPD*%
%INSolderpaste Bottom*%
%IPPOS*%
%AMOC8*
5,1,8,0,0,1.08239X$1,22.5*%
G01*
%ADD10C,0.102000*%


D10*
X91790Y389840D02*
X91790Y384860D01*
X80810Y384860D01*
X80810Y389840D01*
X91790Y389840D01*
X91790Y385829D02*
X80810Y385829D01*
X80810Y386798D02*
X91790Y386798D01*
X91790Y387767D02*
X80810Y387767D01*
X80810Y388736D02*
X91790Y388736D01*
X91790Y389705D02*
X80810Y389705D01*
X91790Y397560D02*
X91790Y402540D01*
X91790Y397560D02*
X80810Y397560D01*
X80810Y402540D01*
X91790Y402540D01*
X91790Y398529D02*
X80810Y398529D01*
X80810Y399498D02*
X91790Y399498D01*
X91790Y400467D02*
X80810Y400467D01*
X80810Y401436D02*
X91790Y401436D01*
X91790Y402405D02*
X80810Y402405D01*
X91790Y410260D02*
X91790Y415240D01*
X91790Y410260D02*
X80810Y410260D01*
X80810Y415240D01*
X91790Y415240D01*
X91790Y411229D02*
X80810Y411229D01*
X80810Y412198D02*
X91790Y412198D01*
X91790Y413167D02*
X80810Y413167D01*
X80810Y414136D02*
X91790Y414136D01*
X91790Y415105D02*
X80810Y415105D01*
X91790Y422960D02*
X91790Y427940D01*
X91790Y422960D02*
X80810Y422960D01*
X80810Y427940D01*
X91790Y427940D01*
X91790Y423929D02*
X80810Y423929D01*
X80810Y424898D02*
X91790Y424898D01*
X91790Y425867D02*
X80810Y425867D01*
X80810Y426836D02*
X91790Y426836D01*
X91790Y427805D02*
X80810Y427805D01*
X147790Y427940D02*
X147790Y422960D01*
X136810Y422960D01*
X136810Y427940D01*
X147790Y427940D01*
X147790Y423929D02*
X136810Y423929D01*
X136810Y424898D02*
X147790Y424898D01*
X147790Y425867D02*
X136810Y425867D01*
X136810Y426836D02*
X147790Y426836D01*
X147790Y427805D02*
X136810Y427805D01*
X147790Y415240D02*
X147790Y410260D01*
X136810Y410260D01*
X136810Y415240D01*
X147790Y415240D01*
X147790Y411229D02*
X136810Y411229D01*
X136810Y412198D02*
X147790Y412198D01*
X147790Y413167D02*
X136810Y413167D01*
X136810Y414136D02*
X147790Y414136D01*
X147790Y415105D02*
X136810Y415105D01*
X147790Y402540D02*
X147790Y397560D01*
X136810Y397560D01*
X136810Y402540D01*
X147790Y402540D01*
X147790Y398529D02*
X136810Y398529D01*
X136810Y399498D02*
X147790Y399498D01*
X147790Y400467D02*
X136810Y400467D01*
X136810Y401436D02*
X147790Y401436D01*
X147790Y402405D02*
X136810Y402405D01*
X147790Y389840D02*
X147790Y384860D01*
X136810Y384860D01*
X136810Y389840D01*
X147790Y389840D01*
X147790Y385829D02*
X136810Y385829D01*
X136810Y386798D02*
X147790Y386798D01*
X147790Y387767D02*
X136810Y387767D01*
X136810Y388736D02*
X147790Y388736D01*
X147790Y389705D02*
X136810Y389705D01*
X325470Y389840D02*
X325470Y384860D01*
X314490Y384860D01*
X314490Y389840D01*
X325470Y389840D01*
X325470Y385829D02*
X314490Y385829D01*
X314490Y386798D02*
X325470Y386798D01*
X325470Y387767D02*
X314490Y387767D01*
X314490Y388736D02*
X325470Y388736D01*
X325470Y389705D02*
X314490Y389705D01*
X325470Y397560D02*
X325470Y402540D01*
X325470Y397560D02*
X314490Y397560D01*
X314490Y402540D01*
X325470Y402540D01*
X325470Y398529D02*
X314490Y398529D01*
X314490Y399498D02*
X325470Y399498D01*
X325470Y400467D02*
X314490Y400467D01*
X314490Y401436D02*
X325470Y401436D01*
X325470Y402405D02*
X314490Y402405D01*
X325470Y410260D02*
X325470Y415240D01*
X325470Y410260D02*
X314490Y410260D01*
X314490Y415240D01*
X325470Y415240D01*
X325470Y411229D02*
X314490Y411229D01*
X314490Y412198D02*
X325470Y412198D01*
X325470Y413167D02*
X314490Y413167D01*
X314490Y414136D02*
X325470Y414136D01*
X325470Y415105D02*
X314490Y415105D01*
X325470Y422960D02*
X325470Y427940D01*
X325470Y422960D02*
X314490Y422960D01*
X314490Y427940D01*
X325470Y427940D01*
X325470Y423929D02*
X314490Y423929D01*
X314490Y424898D02*
X325470Y424898D01*
X325470Y425867D02*
X314490Y425867D01*
X314490Y426836D02*
X325470Y426836D01*
X325470Y427805D02*
X314490Y427805D01*
X381470Y427940D02*
X381470Y422960D01*
X370490Y422960D01*
X370490Y427940D01*
X381470Y427940D01*
X381470Y423929D02*
X370490Y423929D01*
X370490Y424898D02*
X381470Y424898D01*
X381470Y425867D02*
X370490Y425867D01*
X370490Y426836D02*
X381470Y426836D01*
X381470Y427805D02*
X370490Y427805D01*
X381470Y415240D02*
X381470Y410260D01*
X370490Y410260D01*
X370490Y415240D01*
X381470Y415240D01*
X381470Y411229D02*
X370490Y411229D01*
X370490Y412198D02*
X381470Y412198D01*
X381470Y413167D02*
X370490Y413167D01*
X370490Y414136D02*
X381470Y414136D01*
X381470Y415105D02*
X370490Y415105D01*
X381470Y402540D02*
X381470Y397560D01*
X370490Y397560D01*
X370490Y402540D01*
X381470Y402540D01*
X381470Y398529D02*
X370490Y398529D01*
X370490Y399498D02*
X381470Y399498D01*
X381470Y400467D02*
X370490Y400467D01*
X370490Y401436D02*
X381470Y401436D01*
X381470Y402405D02*
X370490Y402405D01*
X381470Y389840D02*
X381470Y384860D01*
X370490Y384860D01*
X370490Y389840D01*
X381470Y389840D01*
X381470Y385829D02*
X370490Y385829D01*
X370490Y386798D02*
X381470Y386798D01*
X381470Y387767D02*
X370490Y387767D01*
X370490Y388736D02*
X381470Y388736D01*
X381470Y389705D02*
X370490Y389705D01*
X559150Y389840D02*
X559150Y384860D01*
X548170Y384860D01*
X548170Y389840D01*
X559150Y389840D01*
X559150Y385829D02*
X548170Y385829D01*
X548170Y386798D02*
X559150Y386798D01*
X559150Y387767D02*
X548170Y387767D01*
X548170Y388736D02*
X559150Y388736D01*
X559150Y389705D02*
X548170Y389705D01*
X559150Y397560D02*
X559150Y402540D01*
X559150Y397560D02*
X548170Y397560D01*
X548170Y402540D01*
X559150Y402540D01*
X559150Y398529D02*
X548170Y398529D01*
X548170Y399498D02*
X559150Y399498D01*
X559150Y400467D02*
X548170Y400467D01*
X548170Y401436D02*
X559150Y401436D01*
X559150Y402405D02*
X548170Y402405D01*
X559150Y410260D02*
X559150Y415240D01*
X559150Y410260D02*
X548170Y410260D01*
X548170Y415240D01*
X559150Y415240D01*
X559150Y411229D02*
X548170Y411229D01*
X548170Y412198D02*
X559150Y412198D01*
X559150Y413167D02*
X548170Y413167D01*
X548170Y414136D02*
X559150Y414136D01*
X559150Y415105D02*
X548170Y415105D01*
X559150Y422960D02*
X559150Y427940D01*
X559150Y422960D02*
X548170Y422960D01*
X548170Y427940D01*
X559150Y427940D01*
X559150Y423929D02*
X548170Y423929D01*
X548170Y424898D02*
X559150Y424898D01*
X559150Y425867D02*
X548170Y425867D01*
X548170Y426836D02*
X559150Y426836D01*
X559150Y427805D02*
X548170Y427805D01*
X615150Y427940D02*
X615150Y422960D01*
X604170Y422960D01*
X604170Y427940D01*
X615150Y427940D01*
X615150Y423929D02*
X604170Y423929D01*
X604170Y424898D02*
X615150Y424898D01*
X615150Y425867D02*
X604170Y425867D01*
X604170Y426836D02*
X615150Y426836D01*
X615150Y427805D02*
X604170Y427805D01*
X615150Y415240D02*
X615150Y410260D01*
X604170Y410260D01*
X604170Y415240D01*
X615150Y415240D01*
X615150Y411229D02*
X604170Y411229D01*
X604170Y412198D02*
X615150Y412198D01*
X615150Y413167D02*
X604170Y413167D01*
X604170Y414136D02*
X615150Y414136D01*
X615150Y415105D02*
X604170Y415105D01*
X615150Y402540D02*
X615150Y397560D01*
X604170Y397560D01*
X604170Y402540D01*
X615150Y402540D01*
X615150Y398529D02*
X604170Y398529D01*
X604170Y399498D02*
X615150Y399498D01*
X615150Y400467D02*
X604170Y400467D01*
X604170Y401436D02*
X615150Y401436D01*
X615150Y402405D02*
X604170Y402405D01*
X615150Y389840D02*
X615150Y384860D01*
X604170Y384860D01*
X604170Y389840D01*
X615150Y389840D01*
X615150Y385829D02*
X604170Y385829D01*
X604170Y386798D02*
X615150Y386798D01*
X615150Y387767D02*
X604170Y387767D01*
X604170Y388736D02*
X615150Y388736D01*
X615150Y389705D02*
X604170Y389705D01*
X792830Y389840D02*
X792830Y384860D01*
X781850Y384860D01*
X781850Y389840D01*
X792830Y389840D01*
X792830Y385829D02*
X781850Y385829D01*
X781850Y386798D02*
X792830Y386798D01*
X792830Y387767D02*
X781850Y387767D01*
X781850Y388736D02*
X792830Y388736D01*
X792830Y389705D02*
X781850Y389705D01*
X792830Y397560D02*
X792830Y402540D01*
X792830Y397560D02*
X781850Y397560D01*
X781850Y402540D01*
X792830Y402540D01*
X792830Y398529D02*
X781850Y398529D01*
X781850Y399498D02*
X792830Y399498D01*
X792830Y400467D02*
X781850Y400467D01*
X781850Y401436D02*
X792830Y401436D01*
X792830Y402405D02*
X781850Y402405D01*
X792830Y410260D02*
X792830Y415240D01*
X792830Y410260D02*
X781850Y410260D01*
X781850Y415240D01*
X792830Y415240D01*
X792830Y411229D02*
X781850Y411229D01*
X781850Y412198D02*
X792830Y412198D01*
X792830Y413167D02*
X781850Y413167D01*
X781850Y414136D02*
X792830Y414136D01*
X792830Y415105D02*
X781850Y415105D01*
X792830Y422960D02*
X792830Y427940D01*
X792830Y422960D02*
X781850Y422960D01*
X781850Y427940D01*
X792830Y427940D01*
X792830Y423929D02*
X781850Y423929D01*
X781850Y424898D02*
X792830Y424898D01*
X792830Y425867D02*
X781850Y425867D01*
X781850Y426836D02*
X792830Y426836D01*
X792830Y427805D02*
X781850Y427805D01*
X848830Y427940D02*
X848830Y422960D01*
X837850Y422960D01*
X837850Y427940D01*
X848830Y427940D01*
X848830Y423929D02*
X837850Y423929D01*
X837850Y424898D02*
X848830Y424898D01*
X848830Y425867D02*
X837850Y425867D01*
X837850Y426836D02*
X848830Y426836D01*
X848830Y427805D02*
X837850Y427805D01*
X848830Y415240D02*
X848830Y410260D01*
X837850Y410260D01*
X837850Y415240D01*
X848830Y415240D01*
X848830Y411229D02*
X837850Y411229D01*
X837850Y412198D02*
X848830Y412198D01*
X848830Y413167D02*
X837850Y413167D01*
X837850Y414136D02*
X848830Y414136D01*
X848830Y415105D02*
X837850Y415105D01*
X848830Y402540D02*
X848830Y397560D01*
X837850Y397560D01*
X837850Y402540D01*
X848830Y402540D01*
X848830Y398529D02*
X837850Y398529D01*
X837850Y399498D02*
X848830Y399498D01*
X848830Y400467D02*
X837850Y400467D01*
X837850Y401436D02*
X848830Y401436D01*
X848830Y402405D02*
X837850Y402405D01*
X848830Y389840D02*
X848830Y384860D01*
X837850Y384860D01*
X837850Y389840D01*
X848830Y389840D01*
X848830Y385829D02*
X837850Y385829D01*
X837850Y386798D02*
X848830Y386798D01*
X848830Y387767D02*
X837850Y387767D01*
X837850Y388736D02*
X848830Y388736D01*
X848830Y389705D02*
X837850Y389705D01*
X1026510Y389840D02*
X1026510Y384860D01*
X1015530Y384860D01*
X1015530Y389840D01*
X1026510Y389840D01*
X1026510Y385829D02*
X1015530Y385829D01*
X1015530Y386798D02*
X1026510Y386798D01*
X1026510Y387767D02*
X1015530Y387767D01*
X1015530Y388736D02*
X1026510Y388736D01*
X1026510Y389705D02*
X1015530Y389705D01*
X1026510Y397560D02*
X1026510Y402540D01*
X1026510Y397560D02*
X1015530Y397560D01*
X1015530Y402540D01*
X1026510Y402540D01*
X1026510Y398529D02*
X1015530Y398529D01*
X1015530Y399498D02*
X1026510Y399498D01*
X1026510Y400467D02*
X1015530Y400467D01*
X1015530Y401436D02*
X1026510Y401436D01*
X1026510Y402405D02*
X1015530Y402405D01*
X1026510Y410260D02*
X1026510Y415240D01*
X1026510Y410260D02*
X1015530Y410260D01*
X1015530Y415240D01*
X1026510Y415240D01*
X1026510Y411229D02*
X1015530Y411229D01*
X1015530Y412198D02*
X1026510Y412198D01*
X1026510Y413167D02*
X1015530Y413167D01*
X1015530Y414136D02*
X1026510Y414136D01*
X1026510Y415105D02*
X1015530Y415105D01*
X1026510Y422960D02*
X1026510Y427940D01*
X1026510Y422960D02*
X1015530Y422960D01*
X1015530Y427940D01*
X1026510Y427940D01*
X1026510Y423929D02*
X1015530Y423929D01*
X1015530Y424898D02*
X1026510Y424898D01*
X1026510Y425867D02*
X1015530Y425867D01*
X1015530Y426836D02*
X1026510Y426836D01*
X1026510Y427805D02*
X1015530Y427805D01*
X1082510Y427940D02*
X1082510Y422960D01*
X1071530Y422960D01*
X1071530Y427940D01*
X1082510Y427940D01*
X1082510Y423929D02*
X1071530Y423929D01*
X1071530Y424898D02*
X1082510Y424898D01*
X1082510Y425867D02*
X1071530Y425867D01*
X1071530Y426836D02*
X1082510Y426836D01*
X1082510Y427805D02*
X1071530Y427805D01*
X1082510Y415240D02*
X1082510Y410260D01*
X1071530Y410260D01*
X1071530Y415240D01*
X1082510Y415240D01*
X1082510Y411229D02*
X1071530Y411229D01*
X1071530Y412198D02*
X1082510Y412198D01*
X1082510Y413167D02*
X1071530Y413167D01*
X1071530Y414136D02*
X1082510Y414136D01*
X1082510Y415105D02*
X1071530Y415105D01*
X1082510Y402540D02*
X1082510Y397560D01*
X1071530Y397560D01*
X1071530Y402540D01*
X1082510Y402540D01*
X1082510Y398529D02*
X1071530Y398529D01*
X1071530Y399498D02*
X1082510Y399498D01*
X1082510Y400467D02*
X1071530Y400467D01*
X1071530Y401436D02*
X1082510Y401436D01*
X1082510Y402405D02*
X1071530Y402405D01*
X1082510Y389840D02*
X1082510Y384860D01*
X1071530Y384860D01*
X1071530Y389840D01*
X1082510Y389840D01*
X1082510Y385829D02*
X1071530Y385829D01*
X1071530Y386798D02*
X1082510Y386798D01*
X1082510Y387767D02*
X1071530Y387767D01*
X1071530Y388736D02*
X1082510Y388736D01*
X1082510Y389705D02*
X1071530Y389705D01*
X91790Y999540D02*
X91790Y1004520D01*
X91790Y999540D02*
X80810Y999540D01*
X80810Y1004520D01*
X91790Y1004520D01*
X91790Y1000509D02*
X80810Y1000509D01*
X80810Y1001478D02*
X91790Y1001478D01*
X91790Y1002447D02*
X80810Y1002447D01*
X80810Y1003416D02*
X91790Y1003416D01*
X91790Y1004385D02*
X80810Y1004385D01*
X91790Y1012240D02*
X91790Y1017220D01*
X91790Y1012240D02*
X80810Y1012240D01*
X80810Y1017220D01*
X91790Y1017220D01*
X91790Y1013209D02*
X80810Y1013209D01*
X80810Y1014178D02*
X91790Y1014178D01*
X91790Y1015147D02*
X80810Y1015147D01*
X80810Y1016116D02*
X91790Y1016116D01*
X91790Y1017085D02*
X80810Y1017085D01*
X91790Y1024940D02*
X91790Y1029920D01*
X91790Y1024940D02*
X80810Y1024940D01*
X80810Y1029920D01*
X91790Y1029920D01*
X91790Y1025909D02*
X80810Y1025909D01*
X80810Y1026878D02*
X91790Y1026878D01*
X91790Y1027847D02*
X80810Y1027847D01*
X80810Y1028816D02*
X91790Y1028816D01*
X91790Y1029785D02*
X80810Y1029785D01*
X91790Y1037640D02*
X91790Y1042620D01*
X91790Y1037640D02*
X80810Y1037640D01*
X80810Y1042620D01*
X91790Y1042620D01*
X91790Y1038609D02*
X80810Y1038609D01*
X80810Y1039578D02*
X91790Y1039578D01*
X91790Y1040547D02*
X80810Y1040547D01*
X80810Y1041516D02*
X91790Y1041516D01*
X91790Y1042485D02*
X80810Y1042485D01*
X147790Y1042620D02*
X147790Y1037640D01*
X136810Y1037640D01*
X136810Y1042620D01*
X147790Y1042620D01*
X147790Y1038609D02*
X136810Y1038609D01*
X136810Y1039578D02*
X147790Y1039578D01*
X147790Y1040547D02*
X136810Y1040547D01*
X136810Y1041516D02*
X147790Y1041516D01*
X147790Y1042485D02*
X136810Y1042485D01*
X147790Y1029920D02*
X147790Y1024940D01*
X136810Y1024940D01*
X136810Y1029920D01*
X147790Y1029920D01*
X147790Y1025909D02*
X136810Y1025909D01*
X136810Y1026878D02*
X147790Y1026878D01*
X147790Y1027847D02*
X136810Y1027847D01*
X136810Y1028816D02*
X147790Y1028816D01*
X147790Y1029785D02*
X136810Y1029785D01*
X147790Y1017220D02*
X147790Y1012240D01*
X136810Y1012240D01*
X136810Y1017220D01*
X147790Y1017220D01*
X147790Y1013209D02*
X136810Y1013209D01*
X136810Y1014178D02*
X147790Y1014178D01*
X147790Y1015147D02*
X136810Y1015147D01*
X136810Y1016116D02*
X147790Y1016116D01*
X147790Y1017085D02*
X136810Y1017085D01*
X147790Y1004520D02*
X147790Y999540D01*
X136810Y999540D01*
X136810Y1004520D01*
X147790Y1004520D01*
X147790Y1000509D02*
X136810Y1000509D01*
X136810Y1001478D02*
X147790Y1001478D01*
X147790Y1002447D02*
X136810Y1002447D01*
X136810Y1003416D02*
X147790Y1003416D01*
X147790Y1004385D02*
X136810Y1004385D01*
X325470Y1004520D02*
X325470Y999540D01*
X314490Y999540D01*
X314490Y1004520D01*
X325470Y1004520D01*
X325470Y1000509D02*
X314490Y1000509D01*
X314490Y1001478D02*
X325470Y1001478D01*
X325470Y1002447D02*
X314490Y1002447D01*
X314490Y1003416D02*
X325470Y1003416D01*
X325470Y1004385D02*
X314490Y1004385D01*
X325470Y1012240D02*
X325470Y1017220D01*
X325470Y1012240D02*
X314490Y1012240D01*
X314490Y1017220D01*
X325470Y1017220D01*
X325470Y1013209D02*
X314490Y1013209D01*
X314490Y1014178D02*
X325470Y1014178D01*
X325470Y1015147D02*
X314490Y1015147D01*
X314490Y1016116D02*
X325470Y1016116D01*
X325470Y1017085D02*
X314490Y1017085D01*
X325470Y1024940D02*
X325470Y1029920D01*
X325470Y1024940D02*
X314490Y1024940D01*
X314490Y1029920D01*
X325470Y1029920D01*
X325470Y1025909D02*
X314490Y1025909D01*
X314490Y1026878D02*
X325470Y1026878D01*
X325470Y1027847D02*
X314490Y1027847D01*
X314490Y1028816D02*
X325470Y1028816D01*
X325470Y1029785D02*
X314490Y1029785D01*
X325470Y1037640D02*
X325470Y1042620D01*
X325470Y1037640D02*
X314490Y1037640D01*
X314490Y1042620D01*
X325470Y1042620D01*
X325470Y1038609D02*
X314490Y1038609D01*
X314490Y1039578D02*
X325470Y1039578D01*
X325470Y1040547D02*
X314490Y1040547D01*
X314490Y1041516D02*
X325470Y1041516D01*
X325470Y1042485D02*
X314490Y1042485D01*
X381470Y1042620D02*
X381470Y1037640D01*
X370490Y1037640D01*
X370490Y1042620D01*
X381470Y1042620D01*
X381470Y1038609D02*
X370490Y1038609D01*
X370490Y1039578D02*
X381470Y1039578D01*
X381470Y1040547D02*
X370490Y1040547D01*
X370490Y1041516D02*
X381470Y1041516D01*
X381470Y1042485D02*
X370490Y1042485D01*
X381470Y1029920D02*
X381470Y1024940D01*
X370490Y1024940D01*
X370490Y1029920D01*
X381470Y1029920D01*
X381470Y1025909D02*
X370490Y1025909D01*
X370490Y1026878D02*
X381470Y1026878D01*
X381470Y1027847D02*
X370490Y1027847D01*
X370490Y1028816D02*
X381470Y1028816D01*
X381470Y1029785D02*
X370490Y1029785D01*
X381470Y1017220D02*
X381470Y1012240D01*
X370490Y1012240D01*
X370490Y1017220D01*
X381470Y1017220D01*
X381470Y1013209D02*
X370490Y1013209D01*
X370490Y1014178D02*
X381470Y1014178D01*
X381470Y1015147D02*
X370490Y1015147D01*
X370490Y1016116D02*
X381470Y1016116D01*
X381470Y1017085D02*
X370490Y1017085D01*
X381470Y1004520D02*
X381470Y999540D01*
X370490Y999540D01*
X370490Y1004520D01*
X381470Y1004520D01*
X381470Y1000509D02*
X370490Y1000509D01*
X370490Y1001478D02*
X381470Y1001478D01*
X381470Y1002447D02*
X370490Y1002447D01*
X370490Y1003416D02*
X381470Y1003416D01*
X381470Y1004385D02*
X370490Y1004385D01*
X559150Y1004520D02*
X559150Y999540D01*
X548170Y999540D01*
X548170Y1004520D01*
X559150Y1004520D01*
X559150Y1000509D02*
X548170Y1000509D01*
X548170Y1001478D02*
X559150Y1001478D01*
X559150Y1002447D02*
X548170Y1002447D01*
X548170Y1003416D02*
X559150Y1003416D01*
X559150Y1004385D02*
X548170Y1004385D01*
X559150Y1012240D02*
X559150Y1017220D01*
X559150Y1012240D02*
X548170Y1012240D01*
X548170Y1017220D01*
X559150Y1017220D01*
X559150Y1013209D02*
X548170Y1013209D01*
X548170Y1014178D02*
X559150Y1014178D01*
X559150Y1015147D02*
X548170Y1015147D01*
X548170Y1016116D02*
X559150Y1016116D01*
X559150Y1017085D02*
X548170Y1017085D01*
X559150Y1024940D02*
X559150Y1029920D01*
X559150Y1024940D02*
X548170Y1024940D01*
X548170Y1029920D01*
X559150Y1029920D01*
X559150Y1025909D02*
X548170Y1025909D01*
X548170Y1026878D02*
X559150Y1026878D01*
X559150Y1027847D02*
X548170Y1027847D01*
X548170Y1028816D02*
X559150Y1028816D01*
X559150Y1029785D02*
X548170Y1029785D01*
X559150Y1037640D02*
X559150Y1042620D01*
X559150Y1037640D02*
X548170Y1037640D01*
X548170Y1042620D01*
X559150Y1042620D01*
X559150Y1038609D02*
X548170Y1038609D01*
X548170Y1039578D02*
X559150Y1039578D01*
X559150Y1040547D02*
X548170Y1040547D01*
X548170Y1041516D02*
X559150Y1041516D01*
X559150Y1042485D02*
X548170Y1042485D01*
X615150Y1042620D02*
X615150Y1037640D01*
X604170Y1037640D01*
X604170Y1042620D01*
X615150Y1042620D01*
X615150Y1038609D02*
X604170Y1038609D01*
X604170Y1039578D02*
X615150Y1039578D01*
X615150Y1040547D02*
X604170Y1040547D01*
X604170Y1041516D02*
X615150Y1041516D01*
X615150Y1042485D02*
X604170Y1042485D01*
X615150Y1029920D02*
X615150Y1024940D01*
X604170Y1024940D01*
X604170Y1029920D01*
X615150Y1029920D01*
X615150Y1025909D02*
X604170Y1025909D01*
X604170Y1026878D02*
X615150Y1026878D01*
X615150Y1027847D02*
X604170Y1027847D01*
X604170Y1028816D02*
X615150Y1028816D01*
X615150Y1029785D02*
X604170Y1029785D01*
X615150Y1017220D02*
X615150Y1012240D01*
X604170Y1012240D01*
X604170Y1017220D01*
X615150Y1017220D01*
X615150Y1013209D02*
X604170Y1013209D01*
X604170Y1014178D02*
X615150Y1014178D01*
X615150Y1015147D02*
X604170Y1015147D01*
X604170Y1016116D02*
X615150Y1016116D01*
X615150Y1017085D02*
X604170Y1017085D01*
X615150Y1004520D02*
X615150Y999540D01*
X604170Y999540D01*
X604170Y1004520D01*
X615150Y1004520D01*
X615150Y1000509D02*
X604170Y1000509D01*
X604170Y1001478D02*
X615150Y1001478D01*
X615150Y1002447D02*
X604170Y1002447D01*
X604170Y1003416D02*
X615150Y1003416D01*
X615150Y1004385D02*
X604170Y1004385D01*
X792830Y1004520D02*
X792830Y999540D01*
X781850Y999540D01*
X781850Y1004520D01*
X792830Y1004520D01*
X792830Y1000509D02*
X781850Y1000509D01*
X781850Y1001478D02*
X792830Y1001478D01*
X792830Y1002447D02*
X781850Y1002447D01*
X781850Y1003416D02*
X792830Y1003416D01*
X792830Y1004385D02*
X781850Y1004385D01*
X792830Y1012240D02*
X792830Y1017220D01*
X792830Y1012240D02*
X781850Y1012240D01*
X781850Y1017220D01*
X792830Y1017220D01*
X792830Y1013209D02*
X781850Y1013209D01*
X781850Y1014178D02*
X792830Y1014178D01*
X792830Y1015147D02*
X781850Y1015147D01*
X781850Y1016116D02*
X792830Y1016116D01*
X792830Y1017085D02*
X781850Y1017085D01*
X792830Y1024940D02*
X792830Y1029920D01*
X792830Y1024940D02*
X781850Y1024940D01*
X781850Y1029920D01*
X792830Y1029920D01*
X792830Y1025909D02*
X781850Y1025909D01*
X781850Y1026878D02*
X792830Y1026878D01*
X792830Y1027847D02*
X781850Y1027847D01*
X781850Y1028816D02*
X792830Y1028816D01*
X792830Y1029785D02*
X781850Y1029785D01*
X792830Y1037640D02*
X792830Y1042620D01*
X792830Y1037640D02*
X781850Y1037640D01*
X781850Y1042620D01*
X792830Y1042620D01*
X792830Y1038609D02*
X781850Y1038609D01*
X781850Y1039578D02*
X792830Y1039578D01*
X792830Y1040547D02*
X781850Y1040547D01*
X781850Y1041516D02*
X792830Y1041516D01*
X792830Y1042485D02*
X781850Y1042485D01*
X848830Y1042620D02*
X848830Y1037640D01*
X837850Y1037640D01*
X837850Y1042620D01*
X848830Y1042620D01*
X848830Y1038609D02*
X837850Y1038609D01*
X837850Y1039578D02*
X848830Y1039578D01*
X848830Y1040547D02*
X837850Y1040547D01*
X837850Y1041516D02*
X848830Y1041516D01*
X848830Y1042485D02*
X837850Y1042485D01*
X848830Y1029920D02*
X848830Y1024940D01*
X837850Y1024940D01*
X837850Y1029920D01*
X848830Y1029920D01*
X848830Y1025909D02*
X837850Y1025909D01*
X837850Y1026878D02*
X848830Y1026878D01*
X848830Y1027847D02*
X837850Y1027847D01*
X837850Y1028816D02*
X848830Y1028816D01*
X848830Y1029785D02*
X837850Y1029785D01*
X848830Y1017220D02*
X848830Y1012240D01*
X837850Y1012240D01*
X837850Y1017220D01*
X848830Y1017220D01*
X848830Y1013209D02*
X837850Y1013209D01*
X837850Y1014178D02*
X848830Y1014178D01*
X848830Y1015147D02*
X837850Y1015147D01*
X837850Y1016116D02*
X848830Y1016116D01*
X848830Y1017085D02*
X837850Y1017085D01*
X848830Y1004520D02*
X848830Y999540D01*
X837850Y999540D01*
X837850Y1004520D01*
X848830Y1004520D01*
X848830Y1000509D02*
X837850Y1000509D01*
X837850Y1001478D02*
X848830Y1001478D01*
X848830Y1002447D02*
X837850Y1002447D01*
X837850Y1003416D02*
X848830Y1003416D01*
X848830Y1004385D02*
X837850Y1004385D01*
X1026510Y1004520D02*
X1026510Y999540D01*
X1015530Y999540D01*
X1015530Y1004520D01*
X1026510Y1004520D01*
X1026510Y1000509D02*
X1015530Y1000509D01*
X1015530Y1001478D02*
X1026510Y1001478D01*
X1026510Y1002447D02*
X1015530Y1002447D01*
X1015530Y1003416D02*
X1026510Y1003416D01*
X1026510Y1004385D02*
X1015530Y1004385D01*
X1026510Y1012240D02*
X1026510Y1017220D01*
X1026510Y1012240D02*
X1015530Y1012240D01*
X1015530Y1017220D01*
X1026510Y1017220D01*
X1026510Y1013209D02*
X1015530Y1013209D01*
X1015530Y1014178D02*
X1026510Y1014178D01*
X1026510Y1015147D02*
X1015530Y1015147D01*
X1015530Y1016116D02*
X1026510Y1016116D01*
X1026510Y1017085D02*
X1015530Y1017085D01*
X1026510Y1024940D02*
X1026510Y1029920D01*
X1026510Y1024940D02*
X1015530Y1024940D01*
X1015530Y1029920D01*
X1026510Y1029920D01*
X1026510Y1025909D02*
X1015530Y1025909D01*
X1015530Y1026878D02*
X1026510Y1026878D01*
X1026510Y1027847D02*
X1015530Y1027847D01*
X1015530Y1028816D02*
X1026510Y1028816D01*
X1026510Y1029785D02*
X1015530Y1029785D01*
X1026510Y1037640D02*
X1026510Y1042620D01*
X1026510Y1037640D02*
X1015530Y1037640D01*
X1015530Y1042620D01*
X1026510Y1042620D01*
X1026510Y1038609D02*
X1015530Y1038609D01*
X1015530Y1039578D02*
X1026510Y1039578D01*
X1026510Y1040547D02*
X1015530Y1040547D01*
X1015530Y1041516D02*
X1026510Y1041516D01*
X1026510Y1042485D02*
X1015530Y1042485D01*
X1082510Y1042620D02*
X1082510Y1037640D01*
X1071530Y1037640D01*
X1071530Y1042620D01*
X1082510Y1042620D01*
X1082510Y1038609D02*
X1071530Y1038609D01*
X1071530Y1039578D02*
X1082510Y1039578D01*
X1082510Y1040547D02*
X1071530Y1040547D01*
X1071530Y1041516D02*
X1082510Y1041516D01*
X1082510Y1042485D02*
X1071530Y1042485D01*
X1082510Y1029920D02*
X1082510Y1024940D01*
X1071530Y1024940D01*
X1071530Y1029920D01*
X1082510Y1029920D01*
X1082510Y1025909D02*
X1071530Y1025909D01*
X1071530Y1026878D02*
X1082510Y1026878D01*
X1082510Y1027847D02*
X1071530Y1027847D01*
X1071530Y1028816D02*
X1082510Y1028816D01*
X1082510Y1029785D02*
X1071530Y1029785D01*
X1082510Y1017220D02*
X1082510Y1012240D01*
X1071530Y1012240D01*
X1071530Y1017220D01*
X1082510Y1017220D01*
X1082510Y1013209D02*
X1071530Y1013209D01*
X1071530Y1014178D02*
X1082510Y1014178D01*
X1082510Y1015147D02*
X1071530Y1015147D01*
X1071530Y1016116D02*
X1082510Y1016116D01*
X1082510Y1017085D02*
X1071530Y1017085D01*
X1082510Y1004520D02*
X1082510Y999540D01*
X1071530Y999540D01*
X1071530Y1004520D01*
X1082510Y1004520D01*
X1082510Y1000509D02*
X1071530Y1000509D01*
X1071530Y1001478D02*
X1082510Y1001478D01*
X1082510Y1002447D02*
X1071530Y1002447D01*
X1071530Y1003416D02*
X1082510Y1003416D01*
X1082510Y1004385D02*
X1071530Y1004385D01*
X91790Y1614220D02*
X91790Y1619200D01*
X91790Y1614220D02*
X80810Y1614220D01*
X80810Y1619200D01*
X91790Y1619200D01*
X91790Y1615189D02*
X80810Y1615189D01*
X80810Y1616158D02*
X91790Y1616158D01*
X91790Y1617127D02*
X80810Y1617127D01*
X80810Y1618096D02*
X91790Y1618096D01*
X91790Y1619065D02*
X80810Y1619065D01*
X91790Y1626920D02*
X91790Y1631900D01*
X91790Y1626920D02*
X80810Y1626920D01*
X80810Y1631900D01*
X91790Y1631900D01*
X91790Y1627889D02*
X80810Y1627889D01*
X80810Y1628858D02*
X91790Y1628858D01*
X91790Y1629827D02*
X80810Y1629827D01*
X80810Y1630796D02*
X91790Y1630796D01*
X91790Y1631765D02*
X80810Y1631765D01*
X91790Y1639620D02*
X91790Y1644600D01*
X91790Y1639620D02*
X80810Y1639620D01*
X80810Y1644600D01*
X91790Y1644600D01*
X91790Y1640589D02*
X80810Y1640589D01*
X80810Y1641558D02*
X91790Y1641558D01*
X91790Y1642527D02*
X80810Y1642527D01*
X80810Y1643496D02*
X91790Y1643496D01*
X91790Y1644465D02*
X80810Y1644465D01*
X91790Y1652320D02*
X91790Y1657300D01*
X91790Y1652320D02*
X80810Y1652320D01*
X80810Y1657300D01*
X91790Y1657300D01*
X91790Y1653289D02*
X80810Y1653289D01*
X80810Y1654258D02*
X91790Y1654258D01*
X91790Y1655227D02*
X80810Y1655227D01*
X80810Y1656196D02*
X91790Y1656196D01*
X91790Y1657165D02*
X80810Y1657165D01*
X147790Y1657300D02*
X147790Y1652320D01*
X136810Y1652320D01*
X136810Y1657300D01*
X147790Y1657300D01*
X147790Y1653289D02*
X136810Y1653289D01*
X136810Y1654258D02*
X147790Y1654258D01*
X147790Y1655227D02*
X136810Y1655227D01*
X136810Y1656196D02*
X147790Y1656196D01*
X147790Y1657165D02*
X136810Y1657165D01*
X147790Y1644600D02*
X147790Y1639620D01*
X136810Y1639620D01*
X136810Y1644600D01*
X147790Y1644600D01*
X147790Y1640589D02*
X136810Y1640589D01*
X136810Y1641558D02*
X147790Y1641558D01*
X147790Y1642527D02*
X136810Y1642527D01*
X136810Y1643496D02*
X147790Y1643496D01*
X147790Y1644465D02*
X136810Y1644465D01*
X147790Y1631900D02*
X147790Y1626920D01*
X136810Y1626920D01*
X136810Y1631900D01*
X147790Y1631900D01*
X147790Y1627889D02*
X136810Y1627889D01*
X136810Y1628858D02*
X147790Y1628858D01*
X147790Y1629827D02*
X136810Y1629827D01*
X136810Y1630796D02*
X147790Y1630796D01*
X147790Y1631765D02*
X136810Y1631765D01*
X147790Y1619200D02*
X147790Y1614220D01*
X136810Y1614220D01*
X136810Y1619200D01*
X147790Y1619200D01*
X147790Y1615189D02*
X136810Y1615189D01*
X136810Y1616158D02*
X147790Y1616158D01*
X147790Y1617127D02*
X136810Y1617127D01*
X136810Y1618096D02*
X147790Y1618096D01*
X147790Y1619065D02*
X136810Y1619065D01*
X325470Y1619200D02*
X325470Y1614220D01*
X314490Y1614220D01*
X314490Y1619200D01*
X325470Y1619200D01*
X325470Y1615189D02*
X314490Y1615189D01*
X314490Y1616158D02*
X325470Y1616158D01*
X325470Y1617127D02*
X314490Y1617127D01*
X314490Y1618096D02*
X325470Y1618096D01*
X325470Y1619065D02*
X314490Y1619065D01*
X325470Y1626920D02*
X325470Y1631900D01*
X325470Y1626920D02*
X314490Y1626920D01*
X314490Y1631900D01*
X325470Y1631900D01*
X325470Y1627889D02*
X314490Y1627889D01*
X314490Y1628858D02*
X325470Y1628858D01*
X325470Y1629827D02*
X314490Y1629827D01*
X314490Y1630796D02*
X325470Y1630796D01*
X325470Y1631765D02*
X314490Y1631765D01*
X325470Y1639620D02*
X325470Y1644600D01*
X325470Y1639620D02*
X314490Y1639620D01*
X314490Y1644600D01*
X325470Y1644600D01*
X325470Y1640589D02*
X314490Y1640589D01*
X314490Y1641558D02*
X325470Y1641558D01*
X325470Y1642527D02*
X314490Y1642527D01*
X314490Y1643496D02*
X325470Y1643496D01*
X325470Y1644465D02*
X314490Y1644465D01*
X325470Y1652320D02*
X325470Y1657300D01*
X325470Y1652320D02*
X314490Y1652320D01*
X314490Y1657300D01*
X325470Y1657300D01*
X325470Y1653289D02*
X314490Y1653289D01*
X314490Y1654258D02*
X325470Y1654258D01*
X325470Y1655227D02*
X314490Y1655227D01*
X314490Y1656196D02*
X325470Y1656196D01*
X325470Y1657165D02*
X314490Y1657165D01*
X381470Y1657300D02*
X381470Y1652320D01*
X370490Y1652320D01*
X370490Y1657300D01*
X381470Y1657300D01*
X381470Y1653289D02*
X370490Y1653289D01*
X370490Y1654258D02*
X381470Y1654258D01*
X381470Y1655227D02*
X370490Y1655227D01*
X370490Y1656196D02*
X381470Y1656196D01*
X381470Y1657165D02*
X370490Y1657165D01*
X381470Y1644600D02*
X381470Y1639620D01*
X370490Y1639620D01*
X370490Y1644600D01*
X381470Y1644600D01*
X381470Y1640589D02*
X370490Y1640589D01*
X370490Y1641558D02*
X381470Y1641558D01*
X381470Y1642527D02*
X370490Y1642527D01*
X370490Y1643496D02*
X381470Y1643496D01*
X381470Y1644465D02*
X370490Y1644465D01*
X381470Y1631900D02*
X381470Y1626920D01*
X370490Y1626920D01*
X370490Y1631900D01*
X381470Y1631900D01*
X381470Y1627889D02*
X370490Y1627889D01*
X370490Y1628858D02*
X381470Y1628858D01*
X381470Y1629827D02*
X370490Y1629827D01*
X370490Y1630796D02*
X381470Y1630796D01*
X381470Y1631765D02*
X370490Y1631765D01*
X381470Y1619200D02*
X381470Y1614220D01*
X370490Y1614220D01*
X370490Y1619200D01*
X381470Y1619200D01*
X381470Y1615189D02*
X370490Y1615189D01*
X370490Y1616158D02*
X381470Y1616158D01*
X381470Y1617127D02*
X370490Y1617127D01*
X370490Y1618096D02*
X381470Y1618096D01*
X381470Y1619065D02*
X370490Y1619065D01*
X559150Y1619200D02*
X559150Y1614220D01*
X548170Y1614220D01*
X548170Y1619200D01*
X559150Y1619200D01*
X559150Y1615189D02*
X548170Y1615189D01*
X548170Y1616158D02*
X559150Y1616158D01*
X559150Y1617127D02*
X548170Y1617127D01*
X548170Y1618096D02*
X559150Y1618096D01*
X559150Y1619065D02*
X548170Y1619065D01*
X559150Y1626920D02*
X559150Y1631900D01*
X559150Y1626920D02*
X548170Y1626920D01*
X548170Y1631900D01*
X559150Y1631900D01*
X559150Y1627889D02*
X548170Y1627889D01*
X548170Y1628858D02*
X559150Y1628858D01*
X559150Y1629827D02*
X548170Y1629827D01*
X548170Y1630796D02*
X559150Y1630796D01*
X559150Y1631765D02*
X548170Y1631765D01*
X559150Y1639620D02*
X559150Y1644600D01*
X559150Y1639620D02*
X548170Y1639620D01*
X548170Y1644600D01*
X559150Y1644600D01*
X559150Y1640589D02*
X548170Y1640589D01*
X548170Y1641558D02*
X559150Y1641558D01*
X559150Y1642527D02*
X548170Y1642527D01*
X548170Y1643496D02*
X559150Y1643496D01*
X559150Y1644465D02*
X548170Y1644465D01*
X559150Y1652320D02*
X559150Y1657300D01*
X559150Y1652320D02*
X548170Y1652320D01*
X548170Y1657300D01*
X559150Y1657300D01*
X559150Y1653289D02*
X548170Y1653289D01*
X548170Y1654258D02*
X559150Y1654258D01*
X559150Y1655227D02*
X548170Y1655227D01*
X548170Y1656196D02*
X559150Y1656196D01*
X559150Y1657165D02*
X548170Y1657165D01*
X615150Y1657300D02*
X615150Y1652320D01*
X604170Y1652320D01*
X604170Y1657300D01*
X615150Y1657300D01*
X615150Y1653289D02*
X604170Y1653289D01*
X604170Y1654258D02*
X615150Y1654258D01*
X615150Y1655227D02*
X604170Y1655227D01*
X604170Y1656196D02*
X615150Y1656196D01*
X615150Y1657165D02*
X604170Y1657165D01*
X615150Y1644600D02*
X615150Y1639620D01*
X604170Y1639620D01*
X604170Y1644600D01*
X615150Y1644600D01*
X615150Y1640589D02*
X604170Y1640589D01*
X604170Y1641558D02*
X615150Y1641558D01*
X615150Y1642527D02*
X604170Y1642527D01*
X604170Y1643496D02*
X615150Y1643496D01*
X615150Y1644465D02*
X604170Y1644465D01*
X615150Y1631900D02*
X615150Y1626920D01*
X604170Y1626920D01*
X604170Y1631900D01*
X615150Y1631900D01*
X615150Y1627889D02*
X604170Y1627889D01*
X604170Y1628858D02*
X615150Y1628858D01*
X615150Y1629827D02*
X604170Y1629827D01*
X604170Y1630796D02*
X615150Y1630796D01*
X615150Y1631765D02*
X604170Y1631765D01*
X615150Y1619200D02*
X615150Y1614220D01*
X604170Y1614220D01*
X604170Y1619200D01*
X615150Y1619200D01*
X615150Y1615189D02*
X604170Y1615189D01*
X604170Y1616158D02*
X615150Y1616158D01*
X615150Y1617127D02*
X604170Y1617127D01*
X604170Y1618096D02*
X615150Y1618096D01*
X615150Y1619065D02*
X604170Y1619065D01*
X792830Y1619200D02*
X792830Y1614220D01*
X781850Y1614220D01*
X781850Y1619200D01*
X792830Y1619200D01*
X792830Y1615189D02*
X781850Y1615189D01*
X781850Y1616158D02*
X792830Y1616158D01*
X792830Y1617127D02*
X781850Y1617127D01*
X781850Y1618096D02*
X792830Y1618096D01*
X792830Y1619065D02*
X781850Y1619065D01*
X792830Y1626920D02*
X792830Y1631900D01*
X792830Y1626920D02*
X781850Y1626920D01*
X781850Y1631900D01*
X792830Y1631900D01*
X792830Y1627889D02*
X781850Y1627889D01*
X781850Y1628858D02*
X792830Y1628858D01*
X792830Y1629827D02*
X781850Y1629827D01*
X781850Y1630796D02*
X792830Y1630796D01*
X792830Y1631765D02*
X781850Y1631765D01*
X792830Y1639620D02*
X792830Y1644600D01*
X792830Y1639620D02*
X781850Y1639620D01*
X781850Y1644600D01*
X792830Y1644600D01*
X792830Y1640589D02*
X781850Y1640589D01*
X781850Y1641558D02*
X792830Y1641558D01*
X792830Y1642527D02*
X781850Y1642527D01*
X781850Y1643496D02*
X792830Y1643496D01*
X792830Y1644465D02*
X781850Y1644465D01*
X792830Y1652320D02*
X792830Y1657300D01*
X792830Y1652320D02*
X781850Y1652320D01*
X781850Y1657300D01*
X792830Y1657300D01*
X792830Y1653289D02*
X781850Y1653289D01*
X781850Y1654258D02*
X792830Y1654258D01*
X792830Y1655227D02*
X781850Y1655227D01*
X781850Y1656196D02*
X792830Y1656196D01*
X792830Y1657165D02*
X781850Y1657165D01*
X848830Y1657300D02*
X848830Y1652320D01*
X837850Y1652320D01*
X837850Y1657300D01*
X848830Y1657300D01*
X848830Y1653289D02*
X837850Y1653289D01*
X837850Y1654258D02*
X848830Y1654258D01*
X848830Y1655227D02*
X837850Y1655227D01*
X837850Y1656196D02*
X848830Y1656196D01*
X848830Y1657165D02*
X837850Y1657165D01*
X848830Y1644600D02*
X848830Y1639620D01*
X837850Y1639620D01*
X837850Y1644600D01*
X848830Y1644600D01*
X848830Y1640589D02*
X837850Y1640589D01*
X837850Y1641558D02*
X848830Y1641558D01*
X848830Y1642527D02*
X837850Y1642527D01*
X837850Y1643496D02*
X848830Y1643496D01*
X848830Y1644465D02*
X837850Y1644465D01*
X848830Y1631900D02*
X848830Y1626920D01*
X837850Y1626920D01*
X837850Y1631900D01*
X848830Y1631900D01*
X848830Y1627889D02*
X837850Y1627889D01*
X837850Y1628858D02*
X848830Y1628858D01*
X848830Y1629827D02*
X837850Y1629827D01*
X837850Y1630796D02*
X848830Y1630796D01*
X848830Y1631765D02*
X837850Y1631765D01*
X848830Y1619200D02*
X848830Y1614220D01*
X837850Y1614220D01*
X837850Y1619200D01*
X848830Y1619200D01*
X848830Y1615189D02*
X837850Y1615189D01*
X837850Y1616158D02*
X848830Y1616158D01*
X848830Y1617127D02*
X837850Y1617127D01*
X837850Y1618096D02*
X848830Y1618096D01*
X848830Y1619065D02*
X837850Y1619065D01*
X1026510Y1619200D02*
X1026510Y1614220D01*
X1015530Y1614220D01*
X1015530Y1619200D01*
X1026510Y1619200D01*
X1026510Y1615189D02*
X1015530Y1615189D01*
X1015530Y1616158D02*
X1026510Y1616158D01*
X1026510Y1617127D02*
X1015530Y1617127D01*
X1015530Y1618096D02*
X1026510Y1618096D01*
X1026510Y1619065D02*
X1015530Y1619065D01*
X1026510Y1626920D02*
X1026510Y1631900D01*
X1026510Y1626920D02*
X1015530Y1626920D01*
X1015530Y1631900D01*
X1026510Y1631900D01*
X1026510Y1627889D02*
X1015530Y1627889D01*
X1015530Y1628858D02*
X1026510Y1628858D01*
X1026510Y1629827D02*
X1015530Y1629827D01*
X1015530Y1630796D02*
X1026510Y1630796D01*
X1026510Y1631765D02*
X1015530Y1631765D01*
X1026510Y1639620D02*
X1026510Y1644600D01*
X1026510Y1639620D02*
X1015530Y1639620D01*
X1015530Y1644600D01*
X1026510Y1644600D01*
X1026510Y1640589D02*
X1015530Y1640589D01*
X1015530Y1641558D02*
X1026510Y1641558D01*
X1026510Y1642527D02*
X1015530Y1642527D01*
X1015530Y1643496D02*
X1026510Y1643496D01*
X1026510Y1644465D02*
X1015530Y1644465D01*
X1026510Y1652320D02*
X1026510Y1657300D01*
X1026510Y1652320D02*
X1015530Y1652320D01*
X1015530Y1657300D01*
X1026510Y1657300D01*
X1026510Y1653289D02*
X1015530Y1653289D01*
X1015530Y1654258D02*
X1026510Y1654258D01*
X1026510Y1655227D02*
X1015530Y1655227D01*
X1015530Y1656196D02*
X1026510Y1656196D01*
X1026510Y1657165D02*
X1015530Y1657165D01*
X1082510Y1657300D02*
X1082510Y1652320D01*
X1071530Y1652320D01*
X1071530Y1657300D01*
X1082510Y1657300D01*
X1082510Y1653289D02*
X1071530Y1653289D01*
X1071530Y1654258D02*
X1082510Y1654258D01*
X1082510Y1655227D02*
X1071530Y1655227D01*
X1071530Y1656196D02*
X1082510Y1656196D01*
X1082510Y1657165D02*
X1071530Y1657165D01*
X1082510Y1644600D02*
X1082510Y1639620D01*
X1071530Y1639620D01*
X1071530Y1644600D01*
X1082510Y1644600D01*
X1082510Y1640589D02*
X1071530Y1640589D01*
X1071530Y1641558D02*
X1082510Y1641558D01*
X1082510Y1642527D02*
X1071530Y1642527D01*
X1071530Y1643496D02*
X1082510Y1643496D01*
X1082510Y1644465D02*
X1071530Y1644465D01*
X1082510Y1631900D02*
X1082510Y1626920D01*
X1071530Y1626920D01*
X1071530Y1631900D01*
X1082510Y1631900D01*
X1082510Y1627889D02*
X1071530Y1627889D01*
X1071530Y1628858D02*
X1082510Y1628858D01*
X1082510Y1629827D02*
X1071530Y1629827D01*
X1071530Y1630796D02*
X1082510Y1630796D01*
X1082510Y1631765D02*
X1071530Y1631765D01*
X1082510Y1619200D02*
X1082510Y1614220D01*
X1071530Y1614220D01*
X1071530Y1619200D01*
X1082510Y1619200D01*
X1082510Y1615189D02*
X1071530Y1615189D01*
X1071530Y1616158D02*
X1082510Y1616158D01*
X1082510Y1617127D02*
X1071530Y1617127D01*
X1071530Y1618096D02*
X1082510Y1618096D01*
X1082510Y1619065D02*
X1071530Y1619065D01*
M02*
