M48
;GenerationSoftware,Autodesk,EAGLE,9.6.2*%
;CreationDate,2022-03-04T18:37:16Z*%
FMAT,2
ICI,OFF
METRIC,TZ,000.000
T7C0.300
T6C0.400
T5C0.508
T4C0.650
T3C1.000
T2C1.016
T1C3.048
%
G90
M71
T1
X114808Y113792
X2540Y72644
X55880Y72644
X61468Y160528
X2540Y137160
X55880Y137160
X2540Y20320
X55880Y20320
X2540Y2540
X55880Y2540
X2540Y119380
X114808Y72644
X61468Y72644
X114808Y90424
X114808Y2540
X61468Y2540
X114808Y20320
X61468Y20320
X61468Y90424
X55880Y119380
X2540Y160528
X55880Y160528
X2540Y43688
X55880Y43688
X2540Y25908
X55880Y25908
X2540Y142748
X2540Y113792
X55880Y113792
X2540Y96012
X114808Y25908
X61468Y25908
X114808Y43688
X61468Y43688
X55880Y96012
X55880Y142748
X114808Y119380
X61468Y119380
X2540Y67056
X55880Y67056
X2540Y49276
X55880Y49276
X114808Y137160
X114808Y96012
X61468Y96012
X61468Y137160
X114808Y49276
X61468Y49276
X114808Y67056
X61468Y67056
X61468Y113792
X114808Y142748
X61468Y142748
X114808Y160528
X2540Y90424
X55880Y90424
T2
X65278Y141478
X75438Y94742
X72898Y94742
X70358Y94742
X67818Y94742
X65278Y94742
X52070Y118110
X49530Y118110
X46990Y118110
X44450Y118110
X41910Y118110
X39370Y118110
X36830Y118110
X34290Y118110
X31750Y118110
X29210Y118110
X26670Y118110
X24130Y118110
X21590Y118110
X19050Y118110
X16510Y118110
X13970Y118110
X24130Y138430
X26670Y138430
X29210Y138430
X31750Y138430
X34290Y138430
X36830Y138430
X39370Y138430
X41910Y138430
X44450Y138430
X46990Y138430
X49530Y138430
X52070Y138430
X65278Y138430
X67818Y138430
X70358Y138430
X72898Y138430
X75438Y138430
X77978Y138430
X80518Y138430
X88138Y68326
X83058Y138430
X85598Y138430
X88138Y138430
X90678Y138430
X93218Y138430
X95758Y138430
X98298Y138430
X100838Y138430
X103378Y138430
X93218Y118110
X90678Y118110
X88138Y118110
X85598Y118110
X83058Y118110
X80518Y118110
X75438Y118110
X72898Y118110
X70358Y118110
X67818Y118110
X65278Y118110
X52070Y141478
X49530Y141478
X46990Y141478
X44450Y141478
X41910Y141478
X39370Y141478
X52070Y1270
X49530Y1270
X46990Y1270
X44450Y1270
X41910Y1270
X39370Y1270
X36830Y1270
X34290Y1270
X31750Y1270
X29210Y1270
X26670Y1270
X24130Y1270
X21590Y1270
X19050Y1270
X16510Y1270
X13970Y1270
X24130Y21590
X26670Y21590
X29210Y21590
X31750Y21590
X34290Y21590
X36830Y21590
X39370Y21590
X41910Y21590
X44450Y21590
X46990Y21590
X49530Y21590
X52070Y21590
X36830Y141478
X34290Y141478
X31750Y141478
X29210Y141478
X26670Y141478
X24130Y141478
X21590Y141478
X19050Y141478
X16510Y141478
X13970Y141478
X65278Y21590
X67818Y21590
X70358Y21590
X72898Y21590
X75438Y21590
X77978Y21590
X80518Y21590
X83058Y21590
X85598Y21590
X88138Y21590
X90678Y21590
X93218Y21590
X95758Y21590
X98298Y21590
X100838Y21590
X103378Y21590
X93218Y1270
X90678Y1270
X88138Y1270
X85598Y1270
X83058Y1270
X80518Y1270
X77978Y1270
X75438Y1270
X72898Y1270
X70358Y1270
X67818Y1270
X65278Y1270
X24130Y161798
X26670Y161798
X29210Y161798
X31750Y161798
X34290Y161798
X36830Y161798
X39370Y161798
X41910Y161798
X44450Y161798
X46990Y161798
X52070Y24638
X49530Y24638
X46990Y24638
X44450Y24638
X41910Y24638
X39370Y24638
X36830Y24638
X34290Y24638
X31750Y24638
X29210Y24638
X26670Y24638
X24130Y24638
X21590Y24638
X19050Y24638
X16510Y24638
X13970Y24638
X24130Y44958
X26670Y44958
X29210Y44958
X31750Y44958
X34290Y44958
X36830Y44958
X39370Y44958
X41910Y44958
X44450Y44958
X46990Y44958
X49530Y44958
X52070Y44958
X49530Y161798
X52070Y161798
X65278Y161798
X67818Y161798
X70358Y161798
X72898Y161798
X75438Y161798
X77978Y161798
X80518Y161798
X83058Y161798
X65278Y44958
X67818Y44958
X70358Y44958
X72898Y44958
X75438Y44958
X77978Y44958
X80518Y44958
X83058Y44958
X85598Y44958
X88138Y44958
X90678Y44958
X93218Y44958
X95758Y44958
X98298Y44958
X100838Y44958
X103378Y44958
X93218Y24638
X90678Y24638
X88138Y24638
X85598Y24638
X83058Y24638
X80518Y24638
X77978Y24638
X75438Y24638
X72898Y24638
X70358Y24638
X67818Y24638
X65278Y24638
X85598Y161798
X88138Y161798
X90678Y161798
X93218Y161798
X95758Y161798
X98298Y161798
X100838Y161798
X103378Y161798
X93218Y141478
X52070Y48006
X49530Y48006
X46990Y48006
X44450Y48006
X41910Y48006
X39370Y48006
X36830Y48006
X34290Y48006
X31750Y48006
X29210Y48006
X26670Y48006
X24130Y48006
X21590Y48006
X19050Y48006
X16510Y48006
X13970Y48006
X24130Y68326
X26670Y68326
X29210Y68326
X31750Y68326
X34290Y68326
X36830Y68326
X39370Y68326
X41910Y68326
X44450Y68326
X46990Y68326
X49530Y68326
X52070Y68326
X90678Y141478
X88138Y141478
X85598Y141478
X83058Y141478
X80518Y141478
X77978Y141478
X75438Y141478
X72898Y141478
X70358Y141478
X67818Y141478
X65278Y68326
X67818Y68326
X70358Y68326
X72898Y68326
X75438Y68326
X77978Y68326
X80518Y68326
X83058Y68326
X85598Y68326
X77978Y118110
X90678Y68326
X93218Y68326
X95758Y68326
X98298Y68326
X100838Y68326
X103378Y68326
X93218Y48006
X90678Y48006
X88138Y48006
X85598Y48006
X83058Y48006
X80518Y48006
X77978Y48006
X75438Y48006
X72898Y48006
X70358Y48006
X67818Y48006
X65278Y48006
X52070Y71374
X49530Y71374
X46990Y71374
X44450Y71374
X41910Y71374
X39370Y71374
X36830Y71374
X34290Y71374
X31750Y71374
X29210Y71374
X26670Y71374
X24130Y71374
X21590Y71374
X19050Y71374
X16510Y71374
X13970Y71374
X24130Y91694
X26670Y91694
X29210Y91694
X31750Y91694
X34290Y91694
X36830Y91694
X39370Y91694
X41910Y91694
X44450Y91694
X46990Y91694
X49530Y91694
X52070Y91694
X65278Y91694
X67818Y91694
X70358Y91694
X72898Y91694
X75438Y91694
X77978Y91694
X80518Y91694
X83058Y91694
X85598Y91694
X88138Y91694
X90678Y91694
X93218Y91694
X95758Y91694
X98298Y91694
X100838Y91694
X103378Y91694
X93218Y71374
X90678Y71374
X88138Y71374
X85598Y71374
X83058Y71374
X80518Y71374
X77978Y71374
X75438Y71374
X72898Y71374
X70358Y71374
X67818Y71374
X65278Y71374
X52070Y94742
X49530Y94742
X46990Y94742
X44450Y94742
X41910Y94742
X39370Y94742
X36830Y94742
X34290Y94742
X31750Y94742
X29210Y94742
X26670Y94742
X24130Y94742
X21590Y94742
X19050Y94742
X16510Y94742
X13970Y94742
X24130Y115062
X26670Y115062
X29210Y115062
X31750Y115062
X34290Y115062
X36830Y115062
X39370Y115062
X41910Y115062
X44450Y115062
X46990Y115062
X49530Y115062
X52070Y115062
X65278Y115062
X67818Y115062
X70358Y115062
X72898Y115062
X75438Y115062
X77978Y115062
X80518Y115062
X83058Y115062
X85598Y115062
X88138Y115062
X90678Y115062
X93218Y115062
X95758Y115062
X98298Y115062
X100838Y115062
X103378Y115062
X93218Y94742
X90678Y94742
X88138Y94742
X85598Y94742
X83058Y94742
X80518Y94742
X77978Y94742
T3
X96459Y6350
X96459Y29718
X12888Y16510
X20889Y16510
X96459Y53086
X12888Y86614
X104459Y6350
X104459Y29718
X12888Y63246
X20889Y63246
X12888Y39878
X20889Y39878
X20889Y86614
X20889Y109982
X104459Y53086
X104459Y76454
X96459Y76454
X12888Y109982
X104459Y99822
X96459Y99822
X96459Y146558
X12888Y133350
X20889Y133350
X104459Y123190
X96459Y123190
X12888Y156718
X20889Y156718
X104459Y146558
T4
X112125Y61056
X112125Y84424
X5223Y8540
X112125Y8540
X5223Y107792
X5223Y102012
X112125Y14320
X112125Y78644
X112125Y102012
X112125Y107792
X5223Y37688
X5223Y31908
X5223Y131160
X112125Y31908
X112125Y37688
X5223Y14320
X112125Y125380
X112125Y131160
X5223Y61056
X5223Y55276
X5223Y125380
X5223Y148748
X112125Y55276
X5223Y84424
X112125Y148748
X112125Y154528
X5223Y78644
X5223Y154528
T5
X62738Y151638
X60198Y151638
X62738Y149098
X60198Y149098
X54610Y8890
X57150Y8890
X54610Y11430
X57150Y11430
X54610Y13970
X57150Y13970
X60198Y130810
X62738Y128270
X62738Y125730
X60198Y125730
X62738Y13970
X60198Y13970
X62738Y11430
X60198Y11430
X62738Y8890
X60198Y8890
X54610Y78994
X57150Y78994
X54610Y102362
X57150Y102362
X54610Y32258
X57150Y32258
X54610Y34798
X57150Y34798
X54610Y37338
X57150Y37338
X54610Y125730
X57150Y125730
X54610Y128270
X57150Y128270
X62738Y37338
X60198Y37338
X62738Y34798
X60198Y34798
X62738Y32258
X60198Y32258
X54610Y130810
X57150Y130810
X60198Y128270
X54610Y55626
X54610Y58166
X57150Y58166
X54610Y60706
X57150Y60706
X62738Y60706
X60198Y60706
X62738Y58166
X60198Y58166
X62738Y55626
X60198Y55626
X57150Y55626
X54610Y104902
X57150Y104902
X54610Y149098
X57150Y149098
X54610Y151638
X57150Y151638
X54610Y154178
X57150Y154178
X62738Y107442
X60198Y107442
X62738Y104902
X60198Y104902
X62738Y102362
X60198Y102362
X54610Y107442
X57150Y107442
X54610Y81534
X57150Y81534
X62738Y84074
X60198Y84074
X62738Y81534
X60198Y81534
X62738Y78994
X60198Y78994
X54610Y84074
X57150Y84074
X62738Y130810
X62738Y154178
X60198Y154178
T6
X1572Y15748
X1572Y7112
X5752Y7112
X5752Y15748
X115775Y7112
X115775Y15748
X111595Y15748
X111595Y7112
X1572Y39116
X1572Y30480
X5752Y30480
X5752Y39116
X115775Y30480
X115775Y39116
X111595Y39116
X111595Y30480
X1572Y62484
X1572Y53848
X5752Y155956
X115775Y147320
X115775Y155956
X111595Y155956
X111595Y147320
X111595Y53848
X5752Y62484
X115775Y53848
X115775Y62484
X115775Y77216
X115775Y85852
X111595Y85852
X111595Y77216
X5752Y53848
X111595Y62484
X115775Y100584
X1572Y85852
X1572Y77216
X5752Y77216
X5752Y85852
X111595Y100584
X115775Y109220
X1572Y109220
X1572Y100584
X5752Y100584
X5752Y109220
X111595Y109220
X1572Y155956
X1572Y132588
X1572Y123952
X5752Y123952
X5752Y132588
X1572Y147320
X5752Y147320
X115775Y123952
X115775Y132588
X111595Y132588
X111595Y123952
T7
X80455Y34862
X88155Y27913
X91694Y31750
X88796Y28956
X103632Y38862
X88872Y35306
X95107Y37366
X81534Y31115
X92583Y33528
X81420Y31991
X89662Y35306
X88263Y32695
X86487Y38672
X86868Y37846
X88542Y32014
X87630Y43117
X94869Y38862
X84350Y38630
X75565Y34671
X81915Y37846
X76581Y34671
X65061Y32983
X65543Y32501
X87757Y36530
X109728Y27051
X109728Y35052
X110998Y27051
X112268Y34544
X39751Y57404
X33401Y53530
X33020Y58166
X50165Y58166
X50800Y61976
X41085Y52260
X43498Y51054
X45720Y48958
X44450Y58420
X7620Y64516
X7239Y52197
X7620Y54356
X7620Y61087
X7620Y56896
X31750Y65151
X34036Y64897
X40259Y63881
X38100Y66421
X42926Y64897
X41910Y62992
X41783Y59436
X53340Y67056
X53340Y55626
X45974Y63627
X44450Y56261
X12954Y49657
X43180Y67056
X48260Y67056
X51181Y52451
X48260Y54356
X48260Y50546
X27940Y61976
X22606Y63246
X27813Y54991
X30861Y53467
X39751Y66421
X52070Y50546
X19177Y53975
X25400Y55626
X24701Y65214
X19177Y51435
X16510Y60071
X20320Y67056
X12700Y67056
X10795Y67691
X10414Y53848
X16510Y56261
X20320Y60071
X15240Y63246
X12700Y55626
X2540Y59436
X7620Y59436
X20320Y56261
X24130Y56896
X33020Y59563
X34417Y58166
X50800Y66294
X27940Y56896
X38735Y61976
X39370Y51816
X35560Y51562
X40005Y54102
X12065Y65151
X16510Y67056
X16510Y65151
X20320Y65151
X33020Y56896
X48514Y60452
X31750Y58166
X9525Y66421
X5715Y67056
X10541Y61976
X6985Y68199
X23368Y52070
X2540Y56896
X35116Y54419
X43371Y49784
X24765Y53040
X25527Y54864
X27772Y51181
X53340Y64516
X7620Y55716
X37465Y60579
X6223Y68199
X37084Y59817
X7747Y68199
X10830Y51265
X28552Y63246
X14732Y54102
X18415Y51054
X14859Y51054
X15875Y55118
X24765Y55118
X47300Y56469
X22479Y67287
X24765Y53721
X18089Y54537
X28575Y53848
X24765Y51689
X29591Y52006
X48260Y56261
X51562Y61722
X48768Y55626
X39497Y63881
X34798Y61595
X29591Y55753
X37592Y58166
X30635Y61496
X38735Y56515
X51308Y60960
X30480Y50546
X40640Y53086
X6223Y51308
X28577Y53044
X32575Y53109
X33020Y50952
X57785Y63246
X52810Y59414
X38608Y63881
X25654Y62738
X28511Y65024
X24765Y58674
X27566Y61214
X50800Y63807
X46228Y59817
X46164Y52832
X41402Y54102
X25400Y61976
X25400Y56896
X25463Y51181
X10668Y49911
X48260Y65151
X40640Y63246
X48260Y61976
X47879Y59817
X57785Y53086
X50292Y64643
X51308Y64643
X30099Y60833
X47879Y52741
X36894Y58102
X29192Y65051
X25654Y61214
X28552Y64008
X13716Y54102
X28476Y57658
X22241Y55598
X35814Y61849
X24765Y59436
X35928Y60973
X27686Y57658
X29085Y60269
X30861Y54292
X30480Y55118
X28806Y60950
X29718Y49847
X22479Y54102
X32998Y54334
X41783Y58293
X35433Y55118
X40767Y58293
X52287Y59981
X51805Y60463
X29591Y56434
X7620Y65913
X7620Y57912
X6350Y65913
X5080Y58420
X77597Y58928
X83947Y62801
X84328Y58166
X67183Y58166
X66548Y54356
X76264Y64071
X73851Y65278
X71628Y67374
X72898Y57912
X109728Y51816
X110109Y64135
X109728Y61976
X109728Y55245
X109728Y59436
X85598Y51181
X83312Y51435
X77089Y52451
X79248Y49911
X74422Y51435
X75438Y53340
X75565Y56896
X64008Y49276
X64008Y60706
X71374Y52705
X72898Y60071
X104394Y66675
X74168Y49276
X69088Y49276
X66167Y63881
X69088Y61976
X69088Y65786
X89408Y54356
X94742Y53086
X89535Y61341
X86487Y62865
X77597Y49911
X65278Y65786
X98171Y62357
X91948Y60706
X92646Y51117
X98171Y64897
X100838Y56261
X97028Y49276
X104648Y49276
X106553Y48641
X106934Y62484
X100838Y60071
X97028Y56261
X102108Y53086
X104648Y60706
X114808Y56896
X109728Y56896
X97028Y60071
X93218Y59436
X84328Y56769
X82931Y58166
X66548Y50038
X89408Y59436
X78613Y54356
X77978Y64516
X81788Y64770
X77343Y62230
X105283Y51181
X100838Y49276
X100838Y51181
X97028Y51181
X84328Y59436
X68834Y55880
X85598Y58166
X107823Y49911
X111633Y49276
X106807Y54356
X110363Y48133
X93980Y64262
X114808Y59436
X82233Y61912
X73978Y66548
X92583Y63292
X91821Y61468
X89575Y65151
X64008Y51816
X109728Y60616
X79883Y55753
X111125Y48133
X80264Y56515
X109601Y48133
X106518Y65067
X88796Y53086
X102616Y62230
X98933Y65278
X102489Y65278
X101473Y61214
X92583Y61214
X70048Y59863
X94869Y49045
X92583Y62611
X99259Y61794
X88773Y62484
X92583Y64643
X87757Y64325
X69088Y60071
X65786Y54610
X68580Y60706
X77851Y52451
X82550Y54737
X87757Y60579
X79756Y58166
X86713Y54836
X78613Y59817
X66040Y55372
X86868Y65786
X76708Y63246
X111125Y65024
X88771Y63288
X84773Y63223
X84328Y65380
X59563Y53086
X64538Y56918
X78740Y52451
X91694Y53594
X88836Y51308
X92583Y57658
X89782Y55118
X66548Y52525
X71120Y56515
X71184Y63500
X75946Y62230
X91948Y54356
X91948Y59436
X91884Y65151
X106680Y66421
X69088Y51181
X76708Y53086
X69088Y54356
X69469Y56515
X59563Y63246
X67056Y51689
X66040Y51689
X87249Y55499
X69469Y63591
X80455Y58229
X88155Y51281
X91694Y55118
X88796Y52324
X103632Y62230
X88872Y58674
X95107Y60734
X81534Y54483
X92583Y56896
X81420Y55359
X89662Y58674
X88263Y56063
X86487Y62039
X86868Y61214
X88542Y55382
X87630Y66485
X94869Y62230
X84350Y61998
X75565Y58039
X81915Y61214
X76581Y58039
X65061Y56351
X65543Y55869
X87757Y59898
X109728Y50419
X109728Y58420
X110998Y50419
X112268Y57912
X39751Y80772
X33401Y76899
X33020Y81534
X50165Y81534
X50800Y85344
X41085Y75629
X43498Y74422
X45720Y72327
X44450Y81788
X7620Y87884
X7239Y75565
X7620Y77724
X7620Y84455
X7620Y80264
X31750Y88519
X34036Y88265
X40259Y87249
X38100Y89789
X42926Y88265
X41910Y86360
X41783Y82804
X53340Y90424
X53340Y78994
X45974Y86995
X44450Y79629
X12954Y73025
X43180Y90424
X48260Y90424
X51181Y75819
X48260Y77724
X48260Y73914
X27940Y85344
X22606Y86614
X27813Y78359
X30861Y76835
X39751Y89789
X52070Y73914
X19177Y77343
X25400Y78994
X24701Y88582
X19177Y74803
X16510Y83439
X20320Y90424
X12700Y90424
X10795Y91059
X10414Y77216
X16510Y79629
X20320Y83439
X15240Y86614
X12700Y78994
X2540Y82804
X7620Y82804
X20320Y79629
X24130Y80264
X33020Y82931
X34417Y81534
X50800Y89662
X27940Y80264
X38735Y85344
X39370Y75184
X35560Y74930
X40005Y77470
X12065Y88519
X16510Y90424
X16510Y88519
X20320Y88519
X33020Y80264
X48514Y83820
X31750Y81534
X9525Y89789
X5715Y90424
X10541Y85344
X6985Y91567
X23368Y75438
X2540Y80264
X35116Y77788
X43371Y73152
X24765Y76408
X25527Y78232
X27772Y74549
X53340Y87884
X7620Y79084
X37465Y83947
X6223Y91567
X37084Y83185
X7747Y91567
X10830Y74633
X28552Y86614
X14732Y77470
X18415Y74422
X14859Y74422
X15875Y78486
X24765Y78486
X47300Y79837
X22479Y90655
X24765Y77089
X18089Y77906
X28575Y77216
X24765Y75057
X29591Y75375
X48260Y79629
X51562Y85090
X48768Y78994
X39497Y87249
X34798Y84963
X29591Y79121
X37592Y81534
X30635Y84864
X38735Y79883
X51308Y84328
X30480Y73914
X40640Y76454
X6223Y74676
X28577Y76412
X32575Y76477
X33020Y74320
X57785Y86614
X52810Y82782
X38608Y87249
X25654Y86106
X28511Y88392
X24765Y82042
X27566Y84582
X50800Y87175
X46228Y83185
X46164Y76200
X41402Y77470
X25400Y85344
X25400Y80264
X25463Y74549
X10668Y73279
X48260Y88519
X40640Y86614
X48260Y85344
X47879Y83185
X57785Y76454
X50292Y88011
X51308Y88011
X30099Y84201
X47879Y76109
X36894Y81471
X29192Y88419
X25654Y84582
X28552Y87376
X13716Y77470
X28476Y81026
X22241Y78966
X35814Y85217
X24765Y82804
X35928Y84341
X27686Y81026
X29085Y83637
X30861Y77661
X30480Y78486
X28806Y84318
X29718Y73216
X22479Y77470
X32998Y77702
X41783Y81661
X35433Y78486
X40767Y81661
X52287Y83349
X51805Y83831
X29591Y79802
X7620Y89281
X7620Y81280
X6350Y89281
X5080Y81788
X77597Y82296
X83947Y86170
X84328Y81534
X67183Y81534
X66548Y77724
X76264Y87439
X73851Y88646
X71628Y90741
X72898Y81280
X109728Y75184
X110109Y87503
X109728Y85344
X109728Y78613
X109728Y82804
X85598Y74549
X83312Y74803
X77089Y75819
X79248Y73279
X74422Y74803
X75438Y76708
X75565Y80264
X64008Y72644
X64008Y84074
X71374Y76073
X72898Y83439
X104394Y90043
X74168Y72644
X69088Y72644
X66167Y87249
X69088Y85344
X69088Y89154
X89408Y77724
X94742Y76454
X89535Y84709
X86487Y86233
X77597Y73279
X65278Y89154
X98171Y85725
X91948Y84074
X92646Y74486
X98171Y88265
X100838Y79629
X97028Y72644
X104648Y72644
X106553Y72009
X106934Y85852
X100838Y83439
X97028Y79629
X102108Y76454
X104648Y84074
X114808Y80264
X109728Y80264
X97028Y83439
X93218Y82804
X84328Y80137
X82931Y81534
X66548Y73406
X89408Y82804
X78613Y77724
X77978Y87884
X81788Y88138
X77343Y85598
X105283Y74549
X100838Y72644
X100838Y74549
X97028Y74549
X84328Y82804
X68834Y79248
X85598Y81534
X107823Y73279
X111633Y72644
X106807Y77724
X110363Y71501
X93980Y87630
X114808Y82804
X82233Y85281
X73978Y89916
X92583Y86660
X91821Y84836
X89575Y88519
X64008Y75184
X109728Y83984
X79883Y79121
X111125Y71501
X80264Y79883
X109601Y71501
X106518Y88435
X88796Y76454
X102616Y85598
X98933Y88646
X102489Y88646
X101473Y84582
X92583Y84582
X70048Y83231
X94869Y72413
X92583Y85979
X99259Y85163
X88773Y85852
X92583Y88011
X87757Y87693
X69088Y83439
X65786Y77978
X68580Y84074
X77851Y75819
X82550Y78105
X87757Y83947
X79756Y81534
X86713Y78204
X78613Y83185
X66040Y78740
X86868Y89154
X76708Y86614
X111125Y88392
X88771Y86656
X84773Y86591
X84328Y88748
X59563Y76454
X64538Y80286
X78740Y75819
X91694Y76962
X88836Y74676
X92583Y81026
X89782Y78486
X66548Y75893
X71120Y79883
X71184Y86868
X75946Y85598
X91948Y77724
X91948Y82804
X91884Y88519
X106680Y89789
X69088Y74549
X76708Y76454
X69088Y77724
X69469Y79883
X59563Y86614
X67056Y75057
X66040Y75057
X87249Y78867
X69469Y86959
X80455Y81598
X88155Y74649
X91694Y78486
X88796Y75692
X103632Y85598
X88872Y82042
X95107Y84102
X81534Y77851
X92583Y80264
X81420Y78727
X89662Y82042
X88263Y79431
X86487Y85408
X86868Y84582
X88542Y78750
X87630Y89852
X94869Y85598
X84350Y85366
X75565Y81407
X81915Y84582
X76581Y81407
X65061Y79719
X65543Y79237
X87757Y83266
X109728Y73787
X109728Y81788
X110998Y73787
X112268Y81280
X39751Y104140
X33401Y100266
X33020Y104902
X50165Y104902
X50800Y108712
X41085Y98996
X43498Y97790
X45720Y95694
X44450Y105156
X7620Y111252
X7239Y98933
X7620Y101092
X7620Y107823
X7620Y103632
X31750Y111887
X34036Y111633
X40259Y110617
X38100Y113157
X42926Y111633
X41910Y109728
X41783Y106172
X53340Y113792
X53340Y102362
X45974Y110363
X44450Y102997
X12954Y96393
X43180Y113792
X48260Y113792
X51181Y99187
X48260Y101092
X48260Y97282
X27940Y108712
X22606Y109982
X27813Y101727
X30861Y100203
X39751Y113157
X52070Y97282
X19177Y100711
X25400Y102362
X24701Y111950
X19177Y98171
X16510Y106807
X20320Y113792
X12700Y113792
X10795Y114427
X10414Y100584
X16510Y102997
X20320Y106807
X15240Y109982
X12700Y102362
X2540Y106172
X7620Y106172
X20320Y102997
X24130Y103632
X33020Y106299
X34417Y104902
X50800Y113030
X27940Y103632
X38735Y108712
X39370Y98552
X35560Y98298
X40005Y100838
X12065Y111887
X16510Y113792
X16510Y111887
X20320Y111887
X33020Y103632
X48514Y107188
X31750Y104902
X9525Y113157
X5715Y113792
X10541Y108712
X6985Y114935
X23368Y98806
X2540Y103632
X35116Y101155
X43371Y96520
X24765Y99776
X25527Y101600
X27772Y97917
X53340Y111252
X7620Y102452
X37465Y107315
X6223Y114935
X37084Y106553
X7747Y114935
X10830Y98001
X28552Y109982
X14732Y100838
X18415Y97790
X14859Y97790
X15875Y101854
X24765Y101854
X47300Y103205
X22479Y114023
X24765Y100457
X18089Y101273
X28575Y100584
X24765Y98425
X29591Y98742
X48260Y102997
X51562Y108458
X48768Y102362
X39497Y110617
X34798Y108331
X29591Y102489
X37592Y104902
X30635Y108232
X38735Y103251
X51308Y107696
X30480Y97282
X40640Y99822
X6223Y98044
X28577Y99780
X32575Y99845
X33020Y97688
X57785Y109982
X52810Y106150
X38608Y110617
X25654Y109474
X28511Y111760
X24765Y105410
X27566Y107950
X50800Y110543
X46228Y106553
X46164Y99568
X41402Y100838
X25400Y108712
X25400Y103632
X25463Y97917
X10668Y96647
X48260Y111887
X40640Y109982
X48260Y108712
X47879Y106553
X57785Y99822
X50292Y111379
X51308Y111379
X30099Y107569
X47879Y99477
X36894Y104838
X29192Y111787
X25654Y107950
X28552Y110744
X13716Y100838
X28476Y104394
X22241Y102334
X35814Y108585
X24765Y106172
X35928Y107709
X27686Y104394
X29085Y107005
X30861Y101028
X30480Y101854
X25400Y32258
X29718Y96583
X22479Y100838
X32998Y101070
X41783Y105029
X35433Y101854
X40767Y105029
X52287Y106717
X51805Y107199
X29591Y103170
X7620Y112649
X7620Y104648
X6350Y112649
X5080Y105156
X77597Y105664
X83947Y109537
X84328Y104902
X67183Y104902
X66548Y101092
X76264Y110807
X73851Y112014
X71628Y114109
X72898Y104648
X109728Y98552
X110109Y110871
X109728Y108712
X109728Y101981
X109728Y106172
X85598Y97917
X83312Y98171
X77089Y99187
X79248Y96647
X74422Y98171
X75438Y100076
X75565Y103632
X64008Y96012
X64008Y107442
X71374Y99441
X72898Y106807
X104394Y113411
X74168Y96012
X69088Y96012
X66167Y110617
X69088Y108712
X69088Y112522
X89408Y101092
X94742Y99822
X89535Y108077
X86487Y109601
X77597Y96647
X65278Y112522
X98171Y109093
X91948Y107442
X92646Y97853
X98171Y111633
X100838Y102997
X97028Y96012
X104648Y96012
X106553Y95377
X106934Y109220
X100838Y106807
X97028Y102997
X102108Y99822
X104648Y107442
X114808Y103632
X109728Y103632
X97028Y106807
X93218Y106172
X84328Y103505
X82931Y104902
X66548Y96774
X89408Y106172
X78613Y101092
X77978Y111252
X81788Y111506
X77343Y108966
X105283Y97917
X100838Y96012
X100838Y97917
X97028Y97917
X84328Y106172
X68834Y102616
X85598Y104902
X107823Y96647
X111633Y96012
X106807Y101092
X110363Y94869
X93980Y110998
X114808Y106172
X82233Y108648
X73978Y113284
X92583Y110028
X91821Y108204
X89575Y111887
X64008Y98552
X109728Y107352
X79883Y102489
X111125Y94869
X80264Y103251
X109601Y94869
X106518Y111803
X88796Y99822
X102616Y108966
X98933Y112014
X102489Y112014
X101473Y107950
X92583Y107950
X70048Y106599
X94869Y95781
X92583Y109347
X99259Y108530
X88773Y109220
X92583Y111379
X87757Y111061
X69088Y106807
X65786Y101346
X68580Y107442
X77851Y99187
X82550Y101473
X87757Y107315
X79756Y104902
X86713Y101572
X78613Y106553
X66040Y102108
X86868Y112522
X76708Y109982
X111125Y111760
X88771Y110024
X84773Y109959
X84328Y112116
X59563Y99822
X64538Y103654
X78740Y99187
X91694Y100330
X88836Y98044
X92583Y104394
X89782Y101854
X66548Y99261
X71120Y103251
X71184Y110236
X75946Y108966
X91948Y101092
X91948Y106172
X91884Y111887
X106680Y113157
X69088Y97917
X76708Y99822
X69088Y101092
X69469Y103251
X59563Y109982
X67056Y98425
X66040Y98425
X87249Y102235
X69469Y110327
X80455Y104965
X88155Y98017
X91694Y101854
X88796Y99060
X103632Y108966
X88872Y105410
X95107Y107470
X81534Y101219
X92583Y103632
X81420Y102095
X89662Y105410
X88263Y102799
X86487Y108775
X86868Y107950
X88542Y102118
X87630Y113220
X94869Y108966
X84350Y108734
X75565Y104775
X81915Y107950
X76581Y104775
X65061Y103087
X65543Y102605
X87757Y106634
X109728Y97155
X109728Y105156
X110998Y97155
X112268Y104648
X39751Y127508
X33401Y123634
X33020Y128270
X50165Y128270
X50800Y132080
X41085Y122364
X43498Y121158
X45720Y119062
X44450Y128524
X7620Y134620
X7239Y122301
X7620Y124460
X7620Y131191
X7620Y127000
X31750Y135255
X34036Y135001
X40259Y133985
X38100Y136525
X42926Y135001
X41910Y133096
X41783Y129540
X53340Y137160
X53340Y125730
X45974Y133731
X44450Y126365
X12954Y119761
X43180Y137160
X48260Y137160
X51181Y122555
X48260Y124460
X48260Y120650
X27940Y132080
X22606Y133350
X27813Y125095
X30861Y123571
X39751Y136525
X52070Y120650
X19177Y124079
X25400Y125730
X24701Y135319
X19177Y121539
X16510Y130175
X20320Y137160
X12700Y137160
X10795Y137795
X10414Y123952
X16510Y126365
X20320Y130175
X15240Y133350
X12700Y125730
X2540Y129540
X7620Y129540
X20320Y126365
X24130Y127000
X33020Y129667
X34417Y128270
X50800Y136398
X27940Y127000
X38735Y132080
X39370Y121920
X35560Y121666
X40005Y124206
X12065Y135255
X16510Y137160
X16510Y135255
X20320Y135255
X33020Y127000
X48514Y130556
X31750Y128270
X9525Y136525
X5715Y137160
X10541Y132080
X6985Y138303
X23368Y122174
X2540Y127000
X35116Y124523
X43371Y119888
X24765Y123144
X25527Y124968
X27772Y121285
X53340Y134620
X7620Y125820
X37465Y130683
X6223Y138303
X37084Y129921
X7747Y138303
X10830Y121369
X28552Y133350
X14732Y124206
X18415Y121158
X14859Y121158
X15875Y125222
X24765Y125222
X47300Y126573
X22479Y137391
X24765Y123825
X18089Y124641
X28575Y123952
X24765Y121793
X29591Y122110
X48260Y126365
X51562Y131826
X48768Y125730
X39497Y133985
X34798Y131699
X29591Y125857
X37592Y128270
X30635Y131600
X38735Y126619
X51308Y131064
X30480Y120650
X40640Y123190
X6223Y121412
X28577Y123148
X32575Y123213
X33020Y121056
X57785Y133350
X52810Y129518
X38608Y133985
X25654Y132842
X28511Y135128
X24765Y128778
X27566Y131318
X50800Y133911
X46228Y129921
X46164Y122936
X41402Y124206
X25400Y132080
X25400Y127000
X25463Y121285
X10668Y120015
X48260Y135255
X40640Y133350
X48260Y132080
X47879Y129921
X57785Y123190
X50292Y134747
X51308Y134747
X30099Y130937
X47879Y122845
X36894Y128206
X29192Y135155
X25654Y131318
X28552Y134112
X13716Y124206
X28476Y127762
X22241Y125702
X35814Y131953
X24765Y129540
X35928Y131077
X27686Y127762
X29085Y130373
X30861Y124396
X30480Y125222
X28806Y131054
X29718Y119951
X22479Y124206
X32998Y124438
X41783Y128397
X35433Y125222
X40767Y128397
X52287Y130085
X51805Y130567
X29591Y126538
X7620Y136017
X7620Y128016
X6350Y136017
X5080Y128524
X77597Y129032
X83947Y132906
X84328Y128270
X67183Y128270
X66548Y124460
X76264Y134176
X73851Y135382
X71628Y137478
X72898Y128016
X109728Y121920
X110109Y134239
X109728Y132080
X109728Y125349
X109728Y129540
X85598Y121285
X83312Y121539
X77089Y122555
X79248Y120015
X74422Y121539
X75438Y123444
X75565Y127000
X64008Y119380
X64008Y130810
X71374Y122809
X72898Y130175
X104394Y136779
X74168Y119380
X69088Y119380
X66167Y133985
X69088Y132080
X69088Y135890
X89408Y124460
X94742Y123190
X89535Y131445
X86487Y132969
X77597Y120015
X65278Y135890
X98171Y132461
X91948Y130810
X92646Y121221
X98171Y135001
X100838Y126365
X97028Y119380
X104648Y119380
X106553Y118745
X106934Y132588
X100838Y130175
X97028Y126365
X102108Y123190
X104648Y130810
X114808Y127000
X109728Y127000
X97028Y130175
X93218Y129540
X84328Y126873
X82931Y128270
X66548Y120142
X89408Y129540
X78613Y124460
X77978Y134620
X81788Y134874
X77343Y132334
X105283Y121285
X100838Y119380
X100838Y121285
X97028Y121285
X84328Y129540
X68834Y125984
X85598Y128270
X107823Y120015
X111633Y119380
X106807Y124460
X110363Y118237
X93980Y134366
X114808Y129540
X82233Y132017
X73978Y136652
X92583Y133396
X91821Y131572
X89575Y135255
X64008Y121920
X109728Y130720
X79883Y125857
X111125Y118237
X80264Y126619
X109601Y118237
X106518Y135171
X88796Y123190
X102616Y132334
X98933Y135382
X102489Y135382
X101473Y131318
X92583Y131318
X70048Y129967
X94869Y119149
X92583Y132715
X99259Y131899
X88773Y132588
X92583Y134747
X87757Y134430
X69088Y130175
X65786Y124714
X68580Y130810
X77851Y122555
X82550Y124841
X87757Y130683
X79756Y128270
X86713Y124940
X78613Y129921
X66040Y125476
X86868Y135890
X76708Y133350
X111125Y135128
X88771Y133392
X84773Y133327
X84328Y135484
X59563Y123190
X64538Y127022
X78740Y122555
X91694Y123698
X88836Y121412
X92583Y127762
X89782Y125222
X66548Y122629
X71120Y126619
X71184Y133604
X75946Y132334
X91948Y124460
X91948Y129540
X91884Y135255
X106680Y136525
X69088Y121285
X76708Y123190
X69088Y124460
X69469Y126619
X59563Y133350
X67056Y121793
X66040Y121793
X87249Y125603
X69469Y133695
X80455Y128333
X88155Y121385
X91694Y125222
X88796Y122428
X103632Y132334
X88872Y128778
X95107Y130838
X81534Y124587
X92583Y127000
X81420Y125463
X89662Y128778
X88263Y126167
X86487Y132144
X86868Y131318
X88542Y125486
X87630Y136589
X94869Y132334
X84350Y132102
X75565Y128143
X81915Y131318
X76581Y128143
X65061Y126455
X65543Y125973
X87757Y130002
X109728Y120523
X109728Y128524
X110998Y120523
X112268Y128016
X39751Y150876
X33401Y147003
X33020Y151638
X50165Y151638
X50800Y155448
X41085Y145733
X43498Y144526
X45720Y142431
X44450Y151892
X7620Y157988
X7239Y145669
X7620Y147828
X7620Y154559
X7620Y150368
X31750Y158623
X34036Y158369
X40259Y157353
X38100Y159893
X42926Y158369
X41910Y156464
X41783Y152908
X53340Y160528
X53340Y149098
X45974Y157099
X44450Y149733
X12954Y143129
X43180Y160528
X48260Y160528
X51181Y145923
X48260Y147828
X48260Y144018
X27940Y155448
X22606Y156718
X27813Y148463
X30861Y146939
X39751Y159893
X52070Y144018
X19177Y147447
X25400Y149098
X24701Y158687
X19177Y144907
X16510Y153543
X20320Y160528
X12700Y160528
X10795Y161163
X10414Y147320
X16510Y149733
X20320Y153543
X15240Y156718
X12700Y149098
X2540Y152908
X7620Y152908
X20320Y149733
X24130Y150368
X33020Y153035
X34417Y151638
X50800Y159766
X27940Y150368
X38735Y155448
X39370Y145288
X35560Y145034
X40005Y147574
X12065Y158623
X16510Y160528
X16510Y158623
X20320Y158623
X33020Y150368
X48514Y153924
X31750Y151638
X9525Y159893
X5715Y160528
X10541Y155448
X6985Y161671
X23368Y145542
X2540Y150368
X35116Y147892
X43371Y143256
X24765Y146512
X25527Y148336
X27772Y144653
X53340Y157988
X7620Y149188
X37465Y154051
X6223Y161671
X37084Y153289
X7747Y161671
X10830Y144737
X28552Y156718
X14732Y147574
X18415Y144526
X14859Y144526
X15875Y148590
X24765Y148590
X47300Y149941
X22479Y160759
X24765Y147193
X18089Y148010
X28575Y147320
X24765Y145161
X29591Y145479
X48260Y149733
X51562Y155194
X48768Y149098
X39497Y157353
X34798Y155067
X29591Y149225
X37592Y151638
X30635Y154968
X38735Y149987
X51308Y154432
X30480Y144018
X40640Y146558
X6223Y144780
X28577Y146516
X32575Y146581
X33020Y144424
X57785Y156718
X52810Y152886
X38608Y157353
X25654Y156210
X28511Y158496
X24765Y152146
X27566Y154686
X50800Y157279
X46228Y153289
X46164Y146304
X41402Y147574
X25400Y155448
X25400Y150368
X25463Y144653
X10668Y143383
X48260Y158623
X40640Y156718
X48260Y155448
X47879Y153289
X57785Y146558
X50292Y158115
X51308Y158115
X30099Y154305
X47879Y146213
X36894Y151575
X29192Y158523
X25654Y154686
X28552Y157480
X13716Y147574
X28476Y151130
X22241Y149070
X35814Y155321
X24765Y152908
X35928Y154445
X27686Y151130
X29085Y153741
X30861Y147765
X30480Y148590
X28806Y154422
X29718Y143320
X22479Y147574
X32998Y147806
X41783Y151765
X35433Y148590
X40767Y151765
X52287Y153453
X51805Y153935
X29591Y149906
X7620Y159385
X7620Y151384
X6350Y159385
X5080Y151892
X77597Y152400
X83947Y156274
X84328Y151638
X67183Y151638
X66548Y147828
X76264Y157544
X73851Y158750
X71628Y160846
X72898Y151384
X109728Y145288
X110109Y157607
X109728Y155448
X109728Y148717
X109728Y152908
X85598Y144653
X83312Y144907
X77089Y145923
X79248Y143383
X74422Y144907
X75438Y146812
X75565Y150368
X64008Y142748
X64008Y154178
X71374Y146177
X72898Y153543
X104394Y160147
X74168Y142748
X69088Y142748
X66167Y157353
X69088Y155448
X69088Y159258
X89408Y147828
X94742Y146558
X89535Y154813
X86487Y156337
X77597Y143383
X65278Y159258
X98171Y155829
X91948Y154178
X92646Y144590
X98171Y158369
X100838Y149733
X97028Y142748
X104648Y142748
X106553Y142113
X106934Y155956
X100838Y153543
X97028Y149733
X102108Y146558
X104648Y154178
X114808Y150368
X109728Y150368
X97028Y153543
X93218Y152908
X84328Y150241
X82931Y151638
X66548Y143510
X89408Y152908
X78613Y147828
X77978Y157988
X81788Y158242
X77343Y155702
X105283Y144653
X39751Y10668
X100838Y144653
X97028Y144653
X84328Y152908
X68834Y149352
X85598Y151638
X107823Y143383
X111633Y142748
X106807Y147828
X110363Y141605
X93980Y157734
X114808Y152908
X82233Y155385
X73978Y160020
X92583Y156764
X91821Y154940
X89575Y158623
X64008Y145288
X109728Y154088
X79883Y149225
X111125Y141605
X80264Y149987
X109601Y141605
X106518Y158539
X88796Y146558
X102616Y155702
X98933Y158750
X102489Y158750
X101473Y154686
X92583Y154686
X70048Y153335
X94869Y142517
X92583Y156083
X99259Y155267
X88773Y155956
X92583Y158115
X87757Y157798
X69088Y153543
X65786Y148082
X68580Y154178
X77851Y145923
X82550Y148209
X87757Y154051
X79756Y151638
X86713Y148308
X78613Y153289
X66040Y148844
X86868Y159258
X76708Y156718
X111125Y158496
X88771Y156760
X84773Y156695
X84328Y158852
X59563Y146558
X64538Y150390
X78740Y145923
X91694Y147066
X88836Y144780
X92583Y151130
X89782Y148590
X66548Y145997
X71120Y149987
X71184Y156972
X75946Y155702
X91948Y147828
X91948Y152908
X91884Y158623
X106680Y159893
X69088Y144653
X76708Y146558
X69088Y147828
X69469Y149987
X59563Y156718
X67056Y145161
X66040Y145161
X87249Y148971
X69469Y157063
X80455Y151702
X88155Y144753
X91694Y148590
X88796Y145796
X103632Y155702
X88872Y152146
X95107Y154206
X81534Y147955
X92583Y150368
X81420Y148831
X89662Y152146
X88263Y149535
X86487Y155512
X86868Y154686
X88542Y148854
X87630Y159957
X94869Y155702
X84350Y155470
X75565Y151511
X81915Y154686
X76581Y151511
X65061Y149823
X65543Y149341
X87757Y153370
X109728Y143891
X109728Y151892
X110998Y143891
X112268Y151384
X33401Y6794
X33020Y11430
X50165Y11430
X50800Y15240
X41085Y5524
X43498Y4318
X45720Y2223
X44450Y11684
X7620Y17780
X7239Y5461
X7620Y7620
X7620Y14351
X7620Y10160
X31750Y18415
X34036Y18161
X40259Y17145
X38100Y19685
X42926Y18161
X41910Y16256
X41783Y12700
X53340Y20320
X53340Y8890
X45974Y16891
X44450Y9525
X12954Y2921
X43180Y20320
X48260Y20320
X51181Y5715
X48260Y7620
X48260Y3810
X27940Y15240
X22606Y16510
X27813Y8255
X30861Y6731
X39751Y19685
X52070Y3810
X19177Y7239
X25400Y8890
X24701Y18479
X19177Y4699
X16510Y13335
X20320Y20320
X12700Y20320
X10795Y20955
X10414Y7112
X16510Y9525
X20320Y13335
X15240Y16510
X12700Y8890
X2540Y12700
X7620Y12700
X20320Y9525
X24130Y10160
X33020Y12827
X34417Y11430
X50800Y19558
X27940Y10160
X38735Y15240
X39370Y5080
X35560Y4826
X40005Y7366
X12065Y18415
X16510Y20320
X16510Y18415
X20320Y18415
X33020Y10160
X48514Y13716
X31750Y11430
X9525Y19685
X5715Y20320
X10541Y15240
X6985Y21463
X23368Y5334
X2540Y10160
X35116Y7683
X43371Y3048
X24765Y6304
X25527Y8128
X27772Y4445
X53340Y17780
X7620Y8980
X37465Y13843
X6223Y21463
X37084Y13081
X7747Y21463
X10830Y4529
X28552Y16510
X14732Y7366
X18415Y4318
X14859Y4318
X15875Y8382
X24765Y8382
X47300Y9733
X22479Y20551
X24765Y6985
X18089Y7801
X28575Y7112
X24765Y4953
X29591Y5271
X48260Y9525
X51562Y14986
X48768Y8890
X39497Y17145
X34798Y14859
X29591Y9017
X37592Y11430
X30635Y14760
X38735Y9779
X51308Y14224
X30480Y3810
X40640Y6350
X6223Y4572
X28577Y6308
X32575Y6373
X33020Y4216
X57785Y16510
X52810Y12678
X38608Y17145
X25654Y16002
X28511Y18288
X24765Y11938
X27566Y14478
X50800Y17071
X46228Y13081
X46164Y6096
X41402Y7366
X25400Y15240
X25400Y10160
X25463Y4445
X10668Y3175
X48260Y18415
X40640Y16510
X48260Y15240
X47879Y13081
X57785Y6350
X50292Y17907
X51308Y17907
X30099Y14097
X47879Y6005
X36894Y11366
X29192Y18315
X25654Y14478
X28552Y17272
X13716Y7366
X28476Y10922
X22241Y8862
X35814Y15113
X24765Y12700
X35928Y14237
X27686Y10922
X29085Y13533
X30861Y7556
X30480Y8382
X28806Y14214
X29718Y3111
X22479Y7366
X32998Y7598
X41783Y11557
X35433Y8382
X40767Y11557
X52287Y13245
X51805Y13727
X29591Y9698
X7620Y19177
X7620Y11176
X6350Y19177
X5080Y11684
X77597Y12192
X83947Y16065
X84328Y11430
X67183Y11430
X66548Y7620
X76264Y17336
X73851Y18542
X71628Y20638
X72898Y11176
X109728Y5080
X110109Y17399
X109728Y15240
X109728Y8509
X109728Y12700
X85598Y4445
X83312Y4699
X77089Y5715
X79248Y3175
X74422Y4699
X75438Y6604
X75565Y10160
X64008Y2540
X64008Y13970
X71374Y5969
X72898Y13335
X104394Y19939
X74168Y2540
X69088Y2540
X66167Y17145
X69088Y15240
X69088Y19050
X89408Y7620
X94742Y6350
X89535Y14605
X86487Y16129
X77597Y3175
X65278Y19050
X98171Y15621
X91948Y13970
X92646Y4382
X98171Y18161
X100838Y9525
X97028Y2540
X104648Y2540
X106553Y1905
X106934Y15748
X100838Y13335
X97028Y9525
X102108Y6350
X104648Y13970
X114808Y10160
X109728Y10160
X97028Y13335
X93218Y12700
X84328Y10033
X82931Y11430
X66548Y3302
X89408Y12700
X78613Y7620
X77978Y17780
X81788Y18034
X77343Y15494
X105283Y4445
X100838Y2540
X100838Y4445
X97028Y4445
X84328Y12700
X68834Y9144
X85598Y11430
X107823Y3175
X111633Y2540
X106807Y7620
X110363Y1397
X93980Y17526
X114808Y12700
X82233Y15176
X73978Y19812
X92583Y16556
X91821Y14732
X89575Y18415
X64008Y5080
X109728Y13880
X79883Y9017
X111125Y1397
X80264Y9779
X109601Y1397
X106518Y18331
X88796Y6350
X102616Y15494
X98933Y18542
X102489Y18542
X101473Y14478
X92583Y14478
X70048Y13127
X94869Y2309
X92583Y15875
X99259Y15058
X88773Y15748
X92583Y17907
X87757Y17590
X69088Y13335
X65786Y7874
X28806Y107686
X68580Y13970
X77851Y5715
X82550Y8001
X87757Y13843
X79756Y11430
X86713Y8100
X78613Y13081
X66040Y8636
X86868Y19050
X76708Y16510
X111125Y18288
X88771Y16552
X84773Y16487
X84328Y18644
X59563Y6350
X64538Y10182
X78740Y5715
X91694Y6858
X88836Y4572
X92583Y10922
X89782Y8382
X66548Y5789
X71120Y9779
X71184Y16764
X75946Y15494
X91948Y7620
X91948Y12700
X91884Y18415
X106680Y19685
X69088Y4445
X76708Y6350
X69088Y7620
X69469Y9779
X59563Y16510
X67056Y4953
X66040Y4953
X87249Y8763
X69469Y16855
X80455Y11493
X88155Y4545
X91694Y8382
X88796Y5588
X103632Y15494
X88872Y11938
X95107Y13998
X81534Y7747
X92583Y10160
X81420Y8623
X89662Y11938
X88263Y9327
X86487Y15303
X86868Y14478
X88542Y8646
X87630Y19749
X94869Y15494
X84350Y15262
X75565Y11303
X81915Y14478
X76581Y11303
X65061Y9615
X65543Y9133
X87757Y13162
X109728Y3683
X109728Y11684
X110998Y3683
X112268Y11176
X39751Y34036
X33401Y30162
X33020Y34798
X50165Y34798
X50800Y38608
X41085Y28892
X43498Y27686
X45720Y25590
X44450Y35052
X7620Y41148
X7239Y28829
X7620Y30988
X7620Y37719
X7620Y33528
X31750Y41783
X34036Y41529
X40259Y40513
X38100Y43053
X42926Y41529
X41910Y39624
X41783Y36068
X53340Y43688
X53340Y32258
X45974Y40259
X44450Y32893
X12954Y26289
X43180Y43688
X48260Y43688
X51181Y29083
X48260Y30988
X48260Y27178
X27940Y38608
X22606Y39878
X27813Y31623
X30861Y30099
X39751Y43053
X52070Y27178
X19177Y30607
X24701Y41847
X19177Y28067
X16510Y36703
X20320Y43688
X12700Y43688
X10795Y44323
X10414Y30480
X16510Y32893
X20320Y36703
X15240Y39878
X12700Y32258
X2540Y36068
X7620Y36068
X20320Y32893
X24130Y33528
X33020Y36195
X34417Y34798
X50800Y42926
X27940Y33528
X38735Y38608
X39370Y28448
X35560Y28194
X40005Y30734
X12065Y41783
X16510Y43688
X16510Y41783
X20320Y41783
X33020Y33528
X48514Y37084
X31750Y34798
X9525Y43053
X5715Y43688
X10541Y38608
X6985Y44831
X23368Y28702
X2540Y33528
X35116Y31051
X43371Y26416
X24765Y29672
X25527Y31496
X27772Y27813
X53340Y41148
X7620Y32348
X37465Y37211
X6223Y44831
X37084Y36449
X7747Y44831
X10830Y27897
X28552Y39878
X14732Y30734
X18415Y27686
X14859Y27686
X15875Y31750
X24765Y31750
X47300Y33101
X22479Y43919
X24765Y30353
X18089Y31169
X28575Y30480
X24765Y28321
X29591Y28638
X48260Y32893
X51562Y38354
X48768Y32258
X39497Y40513
X34798Y38227
X29591Y32385
X37592Y34798
X30635Y38128
X38735Y33147
X51308Y37592
X30480Y27178
X40640Y29718
X6223Y27940
X28577Y29676
X32575Y29741
X33020Y27584
X57785Y39878
X52810Y36046
X38608Y40513
X25654Y39370
X28511Y41656
X24765Y35306
X27566Y37846
X50800Y40439
X46228Y36449
X46164Y29464
X41402Y30734
X25400Y38608
X25400Y33528
X25463Y27813
X10668Y26543
X48260Y41783
X40640Y39878
X48260Y38608
X47879Y36449
X57785Y29718
X50292Y41275
X51308Y41275
X30099Y37465
X47879Y29373
X36894Y34735
X29192Y41683
X25654Y37846
X28552Y40640
X13716Y30734
X28476Y34290
X22241Y32230
X35814Y38481
X24765Y36068
X35928Y37605
X27686Y34290
X29085Y36901
X30861Y30924
X30480Y31750
X28806Y37582
X29718Y26479
X22479Y30734
X32998Y30966
X41783Y34925
X35433Y31750
X40767Y34925
X52287Y36613
X51805Y37095
X29591Y33066
X7620Y42545
X7620Y34544
X6350Y42545
X5080Y35052
X77597Y35560
X83947Y39434
X84328Y34798
X67183Y34798
X66548Y30988
X76264Y40704
X73851Y41910
X71628Y44005
X72898Y34544
X109728Y28448
X110109Y40767
X109728Y38608
X109728Y31877
X109728Y36068
X85598Y27813
X83312Y28067
X77089Y29083
X79248Y26543
X74422Y28067
X75438Y29972
X75565Y33528
X64008Y25908
X64008Y37338
X71374Y29337
X72898Y36703
X104394Y43307
X74168Y25908
X69088Y25908
X66167Y40513
X69088Y38608
X69088Y42418
X89408Y30988
X94742Y29718
X89535Y37973
X86487Y39497
X77597Y26543
X65278Y42418
X98171Y38989
X91948Y37338
X92646Y27749
X98171Y41529
X100838Y32893
X97028Y25908
X104648Y25908
X106553Y25273
X106934Y39116
X100838Y36703
X97028Y32893
X102108Y29718
X104648Y37338
X114808Y33528
X109728Y33528
X97028Y36703
X93218Y36068
X84328Y33401
X82931Y34798
X66548Y26670
X89408Y36068
X78613Y30988
X77978Y41148
X81788Y41402
X77343Y38862
X105283Y27813
X100838Y25908
X100838Y27813
X97028Y27813
X84328Y36068
X68834Y32512
X85598Y34798
X107823Y26543
X111633Y25908
X106807Y30988
X110363Y24765
X93980Y40894
X114808Y36068
X82233Y38545
X73978Y43180
X92583Y39924
X91821Y38100
X89575Y41783
X64008Y28448
X109728Y37248
X79883Y32385
X111125Y24765
X80264Y33147
X109601Y24765
X106518Y41699
X88796Y29718
X102616Y38862
X98933Y41910
X102489Y41910
X101473Y37846
X92583Y37846
X70048Y36495
X94869Y25677
X92583Y39243
X99259Y38427
X88773Y39116
X92583Y41275
X87757Y40958
X69088Y36703
X65786Y31242
X68580Y37338
X77851Y29083
X82550Y31369
X87757Y37211
X79756Y34798
X86713Y31468
X78613Y36449
X66040Y32004
X86868Y42418
X76708Y39878
X111125Y41656
X88771Y39920
X84773Y39855
X84328Y42012
X59563Y29718
X64538Y33550
X78740Y29083
X91694Y30226
X88836Y27940
X92583Y34290
X89782Y31750
X66548Y29157
X71120Y33147
X71184Y40132
X75946Y38862
X91948Y30988
X91948Y36068
X91884Y41783
X106680Y43053
X69088Y27813
X76708Y29718
X69088Y30988
X69469Y33147
X59563Y39878
X67056Y28321
X66040Y28321
X87249Y32131
X69469Y40223
X100838Y142748
M30