M48
;GenerationSoftware,Autodesk,EAGLE,9.6.2*%
;CreationDate,2022-03-14T11:45:59Z*%
FMAT,2
ICI,OFF
METRIC,TZ,000.000
T7C0.300
T6C0.400
T5C0.508
T4C0.650
T3C1.000
T2C1.016
T1C3.302
%
G90
M71
T1
X20320Y178816
X96012Y178816
X113792Y125476
X67056Y117348
X49276Y117348
X67056Y64008
X20320Y55880
X2540Y55880
X20320Y2540
X2540Y2540
X49276Y64008
X96012Y125476
X43688Y178816
X25908Y178816
X43688Y55880
X25908Y55880
X43688Y2540
X25908Y2540
X43688Y125476
X90424Y117348
X72644Y117348
X90424Y64008
X67056Y55880
X49276Y55880
X67056Y2540
X49276Y2540
X72644Y64008
X25908Y125476
X90424Y178816
X72644Y178816
X90424Y55880
X72644Y55880
X90424Y2540
X72644Y2540
X90424Y125476
X113792Y117348
X96012Y117348
X113792Y64008
X113792Y55880
X96012Y55880
X113792Y2540
X96012Y2540
X96012Y64008
X72644Y125476
X67056Y178816
X49276Y178816
X20320Y117348
X2540Y117348
X20320Y64008
X2540Y64008
X67056Y125476
X49276Y125476
X2540Y178816
X20320Y125476
X43688Y117348
X25908Y117348
X43688Y64008
X25908Y64008
X2540Y125476
X113792Y178816
T2
X115062Y36830
X1270Y154686
X1270Y157226
X1270Y159766
X1270Y162306
X1270Y164846
X1270Y167386
X1270Y169926
X1270Y172466
X1270Y175006
X44958Y175006
X44958Y172466
X44958Y169926
X44958Y167386
X44958Y164846
X44958Y162306
X44958Y159766
X44958Y157226
X44958Y154686
X44958Y152146
X44958Y149606
X44958Y147066
X44958Y144526
X44958Y141986
X44958Y139446
X44958Y136906
X24638Y147066
X24638Y149606
X24638Y152146
X24638Y154686
X24638Y157226
X24638Y159766
X24638Y162306
X24638Y164846
X24638Y167386
X24638Y169926
X24638Y172466
X24638Y175006
X68326Y175006
X68326Y172466
X68326Y169926
X68326Y167386
X68326Y164846
X68326Y162306
X68326Y159766
X94742Y175006
X68326Y157226
X68326Y154686
X68326Y152146
X68326Y149606
X68326Y147066
X68326Y144526
X68326Y141986
X68326Y139446
X68326Y136906
X48006Y147066
X48006Y149606
X48006Y152146
X48006Y154686
X48006Y157226
X48006Y159766
X48006Y162306
X48006Y164846
X48006Y167386
X48006Y169926
X48006Y172466
X48006Y175006
X91694Y175006
X91694Y172466
X91694Y169926
X91694Y167386
X91694Y164846
X21590Y52070
X21590Y49530
X21590Y46990
X21590Y44450
X21590Y41910
X21590Y39370
X21590Y36830
X21590Y34290
X21590Y31750
X21590Y29210
X21590Y26670
X21590Y24130
X21590Y21590
X21590Y19050
X21590Y16510
X21590Y13970
X1270Y24130
X1270Y26670
X1270Y29210
X1270Y31750
X1270Y34290
X1270Y36830
X1270Y39370
X1270Y41910
X1270Y44450
X1270Y46990
X1270Y49530
X1270Y52070
X91694Y162306
X91694Y159766
X91694Y157226
X91694Y154686
X91694Y152146
X91694Y149606
X91694Y147066
X91694Y144526
X91694Y141986
X91694Y139446
X44958Y52070
X44958Y49530
X44958Y46990
X44958Y44450
X44958Y41910
X44958Y39370
X44958Y36830
X44958Y34290
X44958Y31750
X44958Y29210
X44958Y26670
X44958Y24130
X44958Y21590
X44958Y19050
X44958Y16510
X44958Y13970
X24638Y24130
X24638Y26670
X24638Y29210
X24638Y31750
X24638Y34290
X24638Y36830
X24638Y39370
X24638Y41910
X24638Y44450
X24638Y46990
X24638Y49530
X24638Y52070
X91694Y136906
X71374Y147066
X71374Y149606
X71374Y152146
X71374Y154686
X71374Y157226
X71374Y159766
X71374Y162306
X71374Y164846
X71374Y167386
X68326Y52070
X68326Y49530
X68326Y46990
X68326Y44450
X68326Y41910
X68326Y39370
X68326Y36830
X68326Y34290
X68326Y31750
X68326Y29210
X68326Y26670
X68326Y24130
X68326Y21590
X68326Y19050
X68326Y16510
X68326Y13970
X48006Y24130
X48006Y26670
X48006Y29210
X48006Y31750
X48006Y34290
X48006Y36830
X48006Y39370
X48006Y41910
X48006Y44450
X48006Y46990
X48006Y49530
X48006Y52070
X71374Y169926
X71374Y172466
X71374Y175006
X115062Y175006
X115062Y172466
X115062Y169926
X115062Y167386
X115062Y164846
X115062Y162306
X115062Y159766
X91694Y52070
X91694Y49530
X91694Y46990
X91694Y44450
X91694Y41910
X91694Y39370
X91694Y36830
X91694Y34290
X91694Y31750
X91694Y29210
X91694Y26670
X91694Y24130
X91694Y21590
X91694Y19050
X91694Y16510
X91694Y13970
X71374Y24130
X71374Y26670
X71374Y29210
X71374Y31750
X71374Y34290
X71374Y36830
X71374Y39370
X71374Y41910
X71374Y44450
X71374Y46990
X71374Y49530
X71374Y52070
X115062Y157226
X115062Y154686
X115062Y152146
X115062Y149606
X115062Y147066
X115062Y144526
X115062Y141986
X115062Y139446
X115062Y136906
X94742Y147066
X115062Y52070
X115062Y49530
X115062Y46990
X115062Y44450
X115062Y41910
X115062Y39370
X115062Y34290
X115062Y31750
X115062Y29210
X115062Y26670
X115062Y24130
X115062Y21590
X115062Y19050
X115062Y16510
X115062Y13970
X94742Y24130
X94742Y26670
X94742Y29210
X94742Y31750
X94742Y34290
X94742Y36830
X94742Y39370
X94742Y41910
X94742Y44450
X94742Y46990
X94742Y49530
X94742Y52070
X94742Y149606
X94742Y152146
X94742Y154686
X94742Y157226
X94742Y159766
X94742Y162306
X94742Y164846
X94742Y167386
X94742Y169926
X94742Y172466
X21590Y113538
X21590Y110998
X21590Y108458
X21590Y105918
X21590Y103378
X21590Y100838
X21590Y98298
X21590Y95758
X21590Y93218
X21590Y90678
X21590Y88138
X21590Y85598
X21590Y83058
X21590Y80518
X21590Y77978
X21590Y75438
X1270Y85598
X1270Y88138
X1270Y90678
X1270Y93218
X1270Y95758
X1270Y98298
X1270Y100838
X1270Y103378
X1270Y105918
X1270Y108458
X1270Y110998
X1270Y113538
X44958Y113538
X44958Y110998
X44958Y108458
X44958Y105918
X44958Y103378
X44958Y100838
X44958Y98298
X44958Y95758
X44958Y93218
X44958Y90678
X44958Y88138
X44958Y85598
X44958Y83058
X44958Y80518
X44958Y77978
X44958Y75438
X24638Y85598
X24638Y88138
X24638Y90678
X24638Y93218
X24638Y95758
X24638Y98298
X24638Y100838
X24638Y103378
X24638Y105918
X24638Y108458
X24638Y110998
X24638Y113538
X68326Y113538
X68326Y110998
X68326Y108458
X68326Y105918
X68326Y103378
X68326Y100838
X68326Y98298
X68326Y95758
X68326Y93218
X68326Y90678
X68326Y88138
X68326Y85598
X68326Y83058
X68326Y80518
X68326Y77978
X68326Y75438
X48006Y85598
X48006Y88138
X48006Y90678
X48006Y93218
X48006Y95758
X48006Y98298
X48006Y100838
X48006Y103378
X48006Y105918
X48006Y108458
X48006Y110998
X48006Y113538
X91694Y113538
X91694Y110998
X91694Y108458
X91694Y105918
X91694Y103378
X91694Y100838
X91694Y98298
X91694Y95758
X91694Y93218
X91694Y90678
X91694Y88138
X91694Y85598
X91694Y83058
X91694Y80518
X91694Y77978
X91694Y75438
X71374Y85598
X71374Y88138
X71374Y90678
X71374Y93218
X71374Y95758
X71374Y98298
X71374Y100838
X71374Y103378
X71374Y105918
X71374Y108458
X71374Y110998
X71374Y113538
X115062Y113538
X115062Y110998
X115062Y108458
X115062Y105918
X115062Y103378
X115062Y100838
X115062Y98298
X115062Y95758
X115062Y93218
X115062Y90678
X115062Y88138
X115062Y85598
X115062Y83058
X115062Y80518
X115062Y77978
X115062Y75438
X94742Y85598
X94742Y88138
X94742Y90678
X94742Y93218
X94742Y95758
X94742Y98298
X94742Y100838
X94742Y103378
X94742Y105918
X94742Y108458
X94742Y110998
X94742Y113538
X21590Y175006
X21590Y172466
X21590Y169926
X21590Y167386
X21590Y164846
X21590Y162306
X21590Y159766
X21590Y157226
X21590Y154686
X21590Y152146
X21590Y149606
X21590Y147066
X21590Y144526
X21590Y141986
X21590Y139446
X21590Y136906
X1270Y147066
X1270Y149606
X1270Y152146
T3
X29718Y74357
X53086Y74357
X6350Y12888
X6350Y20889
X53086Y82357
X76454Y74357
X29718Y12888
X29718Y20889
X76454Y82357
X99822Y74357
X53086Y12888
X53086Y20889
X99822Y82357
X6350Y135825
X76454Y12888
X76454Y20889
X6350Y143825
X99822Y143825
X99822Y12888
X99822Y20889
X29718Y135825
X29718Y143825
X6350Y74357
X6350Y82357
X53086Y135825
X53086Y143825
X76454Y135825
X29718Y82357
X76454Y143825
X99822Y135825
T4
X14320Y5223
X31908Y5223
X37688Y5223
X55276Y5223
X61056Y5223
X78644Y5223
X84424Y5223
X102012Y5223
X107792Y5223
X8540Y66691
X14320Y66691
X31908Y66691
X37688Y66691
X8540Y5223
X55276Y66691
X61056Y66691
X84424Y66691
X8540Y128158
X55276Y128158
X61056Y128158
X14320Y128158
X102012Y66691
X37688Y128158
X84424Y128158
X107792Y66691
X31908Y128158
X102012Y128158
X107792Y128158
X78644Y66691
X78644Y128158
T5
X104902Y177546
X104902Y180086
X102362Y177546
X102362Y180086
X13970Y54610
X13970Y57150
X11430Y54610
X11430Y57150
X8890Y54610
X8890Y57150
X60706Y177546
X60706Y180086
X58166Y177546
X58166Y180086
X37338Y54610
X37338Y57150
X34798Y54610
X34798Y57150
X32258Y54610
X32258Y57150
X55626Y177546
X55626Y180086
X107442Y116078
X107442Y118618
X60706Y54610
X60706Y57150
X58166Y54610
X58166Y57150
X55626Y54610
X55626Y57150
X104902Y116078
X104902Y118618
X102362Y116078
X102362Y118618
X84074Y54610
X84074Y57150
X81534Y54610
X81534Y57150
X78994Y54610
X78994Y57150
X78994Y116078
X78994Y118618
X34798Y116078
X34798Y118618
X107442Y54610
X107442Y57150
X104902Y54610
X104902Y57150
X102362Y54610
X102362Y57150
X13970Y116078
X13970Y118618
X11430Y116078
X11430Y118618
X8890Y116078
X8890Y118618
X60706Y116078
X60706Y118618
X58166Y116078
X58166Y118618
X55626Y116078
X55626Y118618
X32258Y116078
X32258Y118618
X37338Y177546
X37338Y180086
X84074Y177546
X84074Y180086
X81534Y177546
X81534Y180086
X78994Y177546
X78994Y180086
X34798Y177546
X34798Y180086
X32258Y177546
X32258Y180086
X37338Y116078
X37338Y118618
X84074Y116078
X84074Y118618
X13970Y177546
X13970Y180086
X11430Y177546
X11430Y180086
X8890Y177546
X8890Y180086
X81534Y116078
X81534Y118618
X107442Y177546
X107442Y180086
T6
X7112Y1572
X15748Y1572
X15748Y5752
X7112Y5752
X30480Y1572
X39116Y1572
X39116Y5752
X30480Y5752
X53848Y1572
X62484Y1572
X62484Y5752
X53848Y5752
X77216Y1572
X85852Y1572
X85852Y5752
X77216Y5752
X100584Y1572
X109220Y1572
X109220Y5752
X100584Y5752
X30480Y128688
X15748Y63040
X53848Y67221
X100584Y124508
X109220Y124508
X109220Y128688
X100584Y128688
X77216Y124508
X30480Y63040
X39116Y63040
X39116Y67221
X30480Y67221
X85852Y124508
X100584Y63040
X109220Y63040
X109220Y67221
X100584Y67221
X53848Y124508
X62484Y124508
X62484Y128688
X53848Y128688
X85852Y128688
X77216Y63040
X85852Y63040
X85852Y67221
X77216Y67221
X77216Y128688
X15748Y67221
X7112Y124508
X15748Y124508
X15748Y128688
X7112Y128688
X7112Y67221
X7112Y63040
X30480Y124508
X39116Y124508
X39116Y128688
X53848Y63040
X62484Y63040
X62484Y67221
T7
X98171Y42926
X100076Y41910
X103632Y41783
X96012Y53340
X107442Y53340
X99441Y45974
X106807Y44450
X113411Y12954
X96012Y43180
X96012Y48260
X110617Y51181
X108712Y48260
X112522Y48260
X101092Y27940
X99822Y22606
X108077Y27813
X109601Y30861
X96647Y39751
X112522Y52070
X109093Y19177
X107442Y25400
X97853Y24701
X111633Y19177
X102997Y16510
X96012Y20320
X96012Y12700
X95377Y10795
X109220Y10414
X106807Y16510
X102997Y20320
X99822Y15240
X107442Y12700
X106680Y3810
X103632Y7620
X106807Y20320
X106172Y24130
X103505Y33020
X104902Y34417
X96774Y50800
X106172Y27940
X101092Y38735
X111252Y39370
X111506Y35560
X108966Y40005
X97917Y12065
X96012Y16510
X97917Y16510
X97917Y20320
X106172Y33020
X102616Y48514
X104902Y31750
X96647Y9525
X96012Y5715
X101092Y10541
X94869Y6985
X110998Y23368
X110490Y1651
X108648Y35116
X113284Y43371
X110028Y24765
X108204Y25527
X111887Y27772
X98552Y53340
X102616Y7620
X102489Y37465
X94869Y6223
X103251Y37084
X94869Y7747
X111803Y10830
X99822Y28552
X108966Y14732
X112014Y18415
X112014Y14859
X107950Y15875
X107950Y24765
X106599Y47300
X95781Y22479
X109347Y24765
X108530Y18089
X109220Y28575
X111379Y24765
X111061Y29591
X106807Y48260
X101346Y51562
X107442Y48768
X99187Y39497
X101473Y34798
X107315Y29591
X104902Y37592
X101572Y30635
X106553Y38735
X102108Y51308
X112522Y30480
X109982Y40640
X111760Y6223
X110024Y28577
X109959Y32575
X112116Y33020
X99822Y57785
X103654Y52810
X99187Y38608
X100330Y25654
X98044Y28511
X104394Y24765
X101854Y27566
X99261Y50800
X103251Y46228
X110236Y46164
X108966Y41402
X101092Y25400
X106172Y25400
X111887Y25463
X113157Y10668
X97917Y48260
X99822Y40640
X101092Y48260
X103251Y47879
X109982Y57785
X98425Y50292
X98425Y51308
X102235Y30099
X110327Y47879
X104965Y36894
X98017Y29192
X101854Y25654
X99060Y28552
X108966Y13716
X105410Y28476
X107470Y22241
X101219Y35814
X103632Y24765
X102095Y35928
X105410Y27686
X102799Y29085
X108775Y30861
X107950Y30480
X102118Y28806
X113220Y29718
X108966Y22479
X108734Y32998
X104775Y41783
X107950Y35433
X104775Y40767
X103087Y52287
X102605Y51805
X106634Y29591
X97155Y7620
X105156Y7620
X97155Y6350
X104521Y5080
X12192Y101219
X16065Y94869
X11430Y94488
X11430Y111633
X7620Y112268
X17336Y102552
X18542Y104965
X20638Y107188
X11176Y105918
X5080Y69088
X17780Y69088
X15240Y69088
X8382Y69088
X12700Y69088
X4445Y93218
X4699Y95504
X5715Y101727
X3175Y99568
X4699Y104394
X6604Y103378
X10160Y103251
X2540Y114808
X13970Y114808
X5969Y107442
X13335Y105918
X19939Y74422
X2540Y104648
X2540Y109728
X17145Y112649
X15240Y109728
X19050Y109728
X7620Y89408
X6350Y84074
X14605Y89281
X16129Y92329
X3175Y101219
X19050Y113538
X15621Y80645
X13970Y86868
X4382Y86170
X18161Y80645
X9525Y77978
X2540Y81788
X2540Y74168
X1905Y72263
X15748Y71882
X13335Y77978
X9525Y81788
X6350Y76708
X13970Y74168
X13208Y65278
X10160Y69088
X13335Y81788
X12700Y85598
X10033Y94488
X11430Y95885
X3302Y112268
X12700Y89408
X7620Y100203
X17780Y100838
X18034Y97028
X15494Y101473
X4445Y73533
X2540Y77978
X4445Y77978
X4445Y81788
X12700Y94488
X9144Y109982
X11430Y93218
X3175Y70993
X2540Y67183
X7620Y72009
X1397Y68453
X17526Y84836
X17018Y63119
X15176Y96583
X19812Y104838
X16556Y86233
X14732Y86995
X18415Y89240
X5080Y114808
X9144Y69088
X9017Y98933
X1397Y67691
X9779Y98552
X1397Y69215
X18331Y72298
X6350Y90020
X15494Y76200
X18542Y79883
X18542Y76327
X14478Y77343
X14478Y86233
X13127Y108768
X2309Y83947
X15875Y86233
X15058Y79557
X15748Y90043
X17907Y86233
X17590Y91059
X13335Y109728
X7874Y113030
X13970Y110236
X5715Y100965
X8001Y96266
X13843Y91059
X11430Y99060
X8100Y92103
X13081Y100203
X8636Y112776
X19050Y91948
X16510Y102108
X18288Y67691
X16552Y90045
X16487Y94043
X18644Y94488
X6350Y119253
X10182Y114278
X5715Y100076
X6858Y87122
X4572Y89979
X10922Y86233
X8382Y89034
X5789Y112268
X9779Y107696
X16764Y107632
X15494Y102870
X7620Y86868
X12700Y86868
X18415Y86932
X19685Y72136
X4445Y109728
X6350Y102108
X7620Y109728
X9779Y109347
X16510Y119253
X4953Y111760
X4953Y112776
X8763Y91567
X16855Y109347
X11493Y98361
X4545Y90660
X8382Y87122
X5588Y90020
X15494Y75184
X11938Y89944
X13998Y83709
X7747Y97282
X10160Y86233
X8623Y97396
X11938Y89154
X9327Y90553
X15303Y92329
X14478Y91948
X8646Y90274
X19749Y91186
X15494Y83947
X15262Y94466
X11303Y103251
X14478Y96901
X11303Y102235
X9615Y113755
X9133Y113273
X13162Y91059
X3683Y69088
X11684Y69088
X3683Y67818
X11049Y66548
X35560Y101219
X39434Y94869
X34798Y94488
X34798Y111633
X30988Y112268
X40704Y102552
X41910Y104965
X44005Y107188
X34544Y105918
X28448Y69088
X41148Y69088
X38608Y69088
X31750Y69088
X36068Y69088
X27813Y93218
X28067Y95504
X29083Y101727
X26543Y99568
X28067Y104394
X29972Y103378
X33528Y103251
X25908Y114808
X37338Y114808
X29337Y107442
X36703Y105918
X43307Y74422
X25908Y104648
X25908Y109728
X40513Y112649
X38608Y109728
X42418Y109728
X30988Y89408
X29718Y84074
X37973Y89281
X39497Y92329
X26543Y101219
X42418Y113538
X38989Y80645
X37338Y86868
X27749Y86170
X41529Y80645
X32893Y77978
X25908Y81788
X25908Y74168
X25273Y72263
X39116Y71882
X36703Y77978
X32893Y81788
X29718Y76708
X37338Y74168
X36576Y65278
X33528Y69088
X36703Y81788
X36068Y85598
X33401Y94488
X34798Y95885
X26670Y112268
X36068Y89408
X30988Y100203
X41148Y100838
X41402Y97028
X38862Y101473
X27813Y73533
X25908Y77978
X27813Y77978
X27813Y81788
X36068Y94488
X32512Y109982
X34798Y93218
X26543Y70993
X25908Y67183
X30988Y72009
X24765Y68453
X40894Y84836
X40386Y63119
X38545Y96583
X43180Y104838
X39924Y86233
X38100Y86995
X41783Y89240
X28448Y114808
X32512Y69088
X32385Y98933
X24765Y67691
X33147Y98552
X24765Y69215
X41699Y72298
X29718Y90020
X38862Y76200
X41910Y79883
X41910Y76327
X37846Y77343
X37846Y86233
X36495Y108768
X25677Y83947
X39243Y86233
X38427Y79557
X39116Y90043
X41275Y86233
X40958Y91059
X36703Y109728
X31242Y113030
X37338Y110236
X29083Y100965
X31369Y96266
X37211Y91059
X34798Y99060
X31468Y92103
X36449Y100203
X32004Y112776
X42418Y91948
X39878Y102108
X41656Y67691
X39920Y90045
X39855Y94043
X42012Y94488
X29718Y119253
X33550Y114278
X29083Y100076
X30226Y87122
X27940Y89979
X34290Y86233
X31750Y89034
X29157Y112268
X33147Y107696
X40132Y107632
X38862Y102870
X30988Y86868
X36068Y86868
X41783Y86932
X43053Y72136
X27813Y109728
X29718Y102108
X30988Y109728
X33147Y109347
X39878Y119253
X28321Y111760
X28321Y112776
X32131Y91567
X40223Y109347
X34862Y98361
X27913Y90660
X31750Y87122
X28956Y90020
X38862Y75184
X35306Y89944
X37366Y83709
X31115Y97282
X33528Y86233
X31991Y97396
X35306Y89154
X32695Y90553
X38672Y92329
X37846Y91948
X32014Y90274
X43117Y91186
X38862Y83947
X38630Y94466
X34671Y103251
X37846Y96901
X34671Y102235
X32983Y113755
X32501Y113273
X36530Y91059
X27051Y69088
X35052Y69088
X27051Y67818
X34417Y66548
X58928Y101219
X62801Y94869
X58166Y94488
X58166Y111633
X54356Y112268
X64071Y102552
X65278Y104965
X67374Y107188
X57912Y105918
X51816Y69088
X64516Y69088
X61976Y69088
X55118Y69088
X59436Y69088
X51181Y93218
X51435Y95504
X52451Y101727
X49911Y99568
X51435Y104394
X53340Y103378
X56896Y103251
X49276Y114808
X60706Y114808
X52705Y107442
X60071Y105918
X66675Y74422
X49276Y104648
X49276Y109728
X63881Y112649
X61976Y109728
X65786Y109728
X54356Y89408
X53086Y84074
X61341Y89281
X62865Y92329
X49911Y101219
X65786Y113538
X62357Y80645
X60706Y86868
X51117Y86170
X64897Y80645
X56261Y77978
X49276Y81788
X49276Y74168
X48641Y72263
X62484Y71882
X60071Y77978
X56261Y81788
X53086Y76708
X60706Y74168
X59944Y65278
X56896Y69088
X60071Y81788
X59436Y85598
X56769Y94488
X58166Y95885
X50038Y112268
X59436Y89408
X54356Y100203
X64516Y100838
X64770Y97028
X62230Y101473
X51181Y73533
X49276Y77978
X51181Y77978
X51181Y81788
X59436Y94488
X55880Y109982
X58166Y93218
X49911Y70993
X49276Y67183
X54356Y72009
X48133Y68453
X64262Y84836
X63754Y63119
X61912Y96583
X66548Y104838
X63292Y86233
X61468Y86995
X65151Y89240
X51816Y114808
X55880Y69088
X55753Y98933
X48133Y67691
X56515Y98552
X48133Y69215
X65067Y72298
X53086Y90020
X62230Y76200
X65278Y79883
X65278Y76327
X61214Y77343
X61214Y86233
X59863Y108768
X49045Y83947
X62611Y86233
X61794Y79557
X62484Y90043
X64643Y86233
X64325Y91059
X60071Y109728
X54610Y113030
X60706Y110236
X52451Y100965
X54737Y96266
X60579Y91059
X58166Y99060
X54836Y92103
X59817Y100203
X55372Y112776
X65786Y91948
X63246Y102108
X65024Y67691
X63288Y90045
X63223Y94043
X65380Y94488
X53086Y119253
X56918Y114278
X52451Y100076
X53594Y87122
X51308Y89979
X57658Y86233
X55118Y89034
X52525Y112268
X56515Y107696
X63500Y107632
X62230Y102870
X54356Y86868
X59436Y86868
X65151Y86932
X66421Y72136
X51181Y109728
X53086Y102108
X54356Y109728
X56515Y109347
X63246Y119253
X51689Y111760
X51689Y112776
X55499Y91567
X63591Y109347
X58229Y98361
X51281Y90660
X55118Y87122
X52324Y90020
X62230Y75184
X58674Y89944
X60734Y83709
X54483Y97282
X56896Y86233
X55359Y97396
X58674Y89154
X56063Y90553
X62039Y92329
X61214Y91948
X55382Y90274
X66485Y91186
X62230Y83947
X61998Y94466
X58039Y103251
X61214Y96901
X58039Y102235
X56351Y113755
X55869Y113273
X59898Y91059
X50419Y69088
X58420Y69088
X50419Y67818
X57785Y66548
X82296Y101219
X86170Y94869
X81534Y94488
X81534Y111633
X77724Y112268
X87439Y102552
X88646Y104965
X90741Y107188
X81280Y105918
X75184Y69088
X87884Y69088
X85344Y69088
X78486Y69088
X82804Y69088
X74549Y93218
X74803Y95504
X75819Y101727
X73279Y99568
X74803Y104394
X76708Y103378
X80264Y103251
X72644Y114808
X84074Y114808
X76073Y107442
X83439Y105918
X90043Y74422
X72644Y104648
X72644Y109728
X87249Y112649
X85344Y109728
X89154Y109728
X77724Y89408
X76454Y84074
X84709Y89281
X86233Y92329
X73279Y101219
X89154Y113538
X85725Y80645
X84074Y86868
X74486Y86170
X88265Y80645
X79629Y77978
X72644Y81788
X72644Y74168
X72009Y72263
X85852Y71882
X83439Y77978
X79629Y81788
X76454Y76708
X84074Y74168
X83312Y65278
X80264Y69088
X83439Y81788
X82804Y85598
X80137Y94488
X81534Y95885
X73406Y112268
X82804Y89408
X77724Y100203
X87884Y100838
X88138Y97028
X85598Y101473
X74549Y73533
X72644Y77978
X74549Y77978
X74549Y81788
X82804Y94488
X79248Y109982
X81534Y93218
X73279Y70993
X72644Y67183
X77724Y72009
X71501Y68453
X87630Y84836
X87122Y63119
X85281Y96583
X89916Y104838
X86660Y86233
X84836Y86995
X88519Y89240
X75184Y114808
X79248Y69088
X79121Y98933
X71501Y67691
X79883Y98552
X71501Y69215
X88435Y72298
X76454Y90020
X85598Y76200
X88646Y79883
X88646Y76327
X84582Y77343
X84582Y86233
X83231Y108768
X72413Y83947
X85979Y86233
X85163Y79557
X85852Y90043
X88011Y86233
X87693Y91059
X83439Y109728
X77978Y113030
X84074Y110236
X75819Y100965
X78105Y96266
X83947Y91059
X81534Y99060
X78204Y92103
X83185Y100203
X78740Y112776
X89154Y91948
X86614Y102108
X88392Y67691
X86656Y90045
X86591Y94043
X88748Y94488
X76454Y119253
X80286Y114278
X75819Y100076
X76962Y87122
X74676Y89979
X81026Y86233
X78486Y89034
X75893Y112268
X79883Y107696
X86868Y107632
X85598Y102870
X77724Y86868
X82804Y86868
X88519Y86932
X89789Y72136
X74549Y109728
X76454Y102108
X77724Y109728
X79883Y109347
X86614Y119253
X75057Y111760
X75057Y112776
X78867Y91567
X86959Y109347
X81598Y98361
X74649Y90660
X78486Y87122
X75692Y90020
X85598Y75184
X82042Y89944
X84102Y83709
X77851Y97282
X80264Y86233
X78727Y97396
X82042Y89154
X79431Y90553
X85408Y92329
X84582Y91948
X78750Y90274
X89852Y91186
X85598Y83947
X85366Y94466
X81407Y103251
X84582Y96901
X81407Y102235
X79719Y113755
X79237Y113273
X83266Y91059
X73787Y69088
X81788Y69088
X73787Y67818
X81153Y66548
X105664Y101219
X109537Y94869
X104902Y94488
X104902Y111633
X101092Y112268
X110807Y102552
X112014Y104965
X114109Y107188
X104648Y105918
X98552Y69088
X111252Y69088
X108712Y69088
X101854Y69088
X106172Y69088
X97917Y93218
X98171Y95504
X99187Y101727
X96647Y99568
X98171Y104394
X100076Y103378
X103632Y103251
X96012Y114808
X107442Y114808
X99441Y107442
X106807Y105918
X113411Y74422
X96012Y104648
X96012Y109728
X110617Y112649
X108712Y109728
X112522Y109728
X101092Y89408
X99822Y84074
X108077Y89281
X109601Y92329
X96647Y101219
X112522Y113538
X109093Y80645
X107442Y86868
X97853Y86170
X111633Y80645
X102997Y77978
X96012Y81788
X96012Y74168
X95377Y72263
X109220Y71882
X106807Y77978
X102997Y81788
X99822Y76708
X107442Y74168
X106680Y65278
X103632Y69088
X106807Y81788
X106172Y85598
X103505Y94488
X104902Y95885
X96774Y112268
X106172Y89408
X101092Y100203
X111252Y100838
X111506Y97028
X108966Y101473
X97917Y73533
X96012Y77978
X97917Y77978
X97917Y81788
X106172Y94488
X102616Y109982
X104902Y93218
X96647Y70993
X96012Y67183
X101092Y72009
X94869Y68453
X110998Y84836
X110490Y63119
X108648Y96583
X113284Y104838
X110028Y86233
X108204Y86995
X111887Y89240
X98552Y114808
X102616Y69088
X102489Y98933
X94869Y67691
X103251Y98552
X94869Y69215
X111803Y72298
X99822Y90020
X108966Y76200
X112014Y79883
X112014Y76327
X107950Y77343
X107950Y86233
X51181Y20320
X95781Y83947
X109347Y86233
X108530Y79557
X109220Y90043
X111379Y86233
X111061Y91059
X106807Y109728
X101346Y113030
X107442Y110236
X99187Y100965
X101473Y96266
X107315Y91059
X104902Y99060
X101572Y92103
X106553Y100203
X102108Y112776
X112522Y91948
X109982Y102108
X111760Y67691
X110024Y90045
X109959Y94043
X112116Y94488
X99822Y119253
X103654Y114278
X99187Y100076
X100330Y87122
X98044Y89979
X104394Y86233
X101854Y89034
X99261Y112268
X103251Y107696
X110236Y107632
X108966Y102870
X101092Y86868
X106172Y86868
X111887Y86932
X113157Y72136
X97917Y109728
X99822Y102108
X101092Y109728
X103251Y109347
X109982Y119253
X98425Y111760
X98425Y112776
X102235Y91567
X110327Y109347
X104965Y98361
X98017Y90660
X101854Y87122
X99060Y90020
X108966Y75184
X105410Y89944
X107470Y83709
X101219Y97282
X103632Y86233
X102095Y97396
X105410Y89154
X102799Y90553
X108775Y92329
X107950Y91948
X102118Y90274
X113220Y91186
X108966Y83947
X108734Y94466
X104775Y103251
X107950Y96901
X104775Y102235
X103087Y113755
X102605Y113273
X106634Y91059
X97155Y69088
X105156Y69088
X97155Y67818
X104521Y66548
X12192Y162687
X16065Y156337
X11430Y155956
X11430Y173101
X7620Y173736
X17336Y164021
X18542Y166434
X20638Y168656
X11176Y167386
X5080Y130556
X17780Y130556
X15240Y130556
X8382Y130556
X12700Y130556
X4445Y154686
X4699Y156972
X5715Y163195
X3175Y161036
X4699Y165862
X6604Y164846
X10160Y164719
X2540Y176276
X13970Y176276
X5969Y168910
X13335Y167386
X19939Y135890
X2540Y166116
X2540Y171196
X17145Y174117
X15240Y171196
X19050Y171196
X7620Y150876
X6350Y145542
X14605Y150749
X16129Y153797
X3175Y162687
X19050Y175006
X15621Y142113
X13970Y148336
X4382Y147638
X18161Y142113
X9525Y139446
X2540Y143256
X2540Y135636
X1905Y133731
X15748Y133350
X13335Y139446
X9525Y143256
X6350Y138176
X13970Y135636
X13208Y126746
X10160Y130556
X13335Y143256
X12700Y147066
X10033Y155956
X11430Y157353
X3302Y173736
X12700Y150876
X7620Y161671
X17780Y162306
X18034Y158496
X15494Y162941
X4445Y135001
X2540Y139446
X4445Y139446
X4445Y143256
X12700Y155956
X9144Y171450
X11430Y154686
X3175Y132461
X2540Y128651
X7620Y133477
X1397Y129921
X17526Y146304
X17018Y124587
X15176Y158052
X19812Y166307
X16556Y147701
X14732Y148463
X18415Y150709
X5080Y176276
X9144Y130556
X9017Y160401
X1397Y129159
X9779Y160020
X1397Y130683
X18331Y133766
X6350Y151488
X15494Y137668
X18542Y141351
X18542Y137795
X14478Y138811
X14478Y147701
X13127Y170236
X2309Y145415
X15875Y147701
X15058Y141025
X15748Y151511
X17907Y147701
X17590Y152527
X13335Y171196
X7874Y174498
X13970Y171704
X5715Y162433
X8001Y157734
X13843Y152527
X11430Y160528
X8100Y153571
X13081Y161671
X8636Y174244
X19050Y153416
X16510Y163576
X18288Y129159
X16552Y151513
X16487Y155512
X18644Y155956
X6350Y180721
X10182Y175746
X5715Y161544
X6858Y148590
X4572Y151448
X10922Y147701
X8382Y150502
X5789Y173736
X9779Y169164
X16764Y169101
X15494Y164338
X7620Y148336
X12700Y148336
X18415Y148400
X19685Y133604
X4445Y171196
X6350Y163576
X7620Y171196
X9779Y170815
X16510Y180721
X4953Y173228
X4953Y174244
X8763Y153035
X16855Y170815
X11493Y159830
X4545Y152129
X8382Y148590
X5588Y151488
X15494Y136652
X11938Y151412
X13998Y145177
X7747Y158750
X10160Y147701
X8623Y158864
X11938Y150622
X9327Y152021
X15303Y153797
X14478Y153416
X8646Y151742
X19749Y152654
X15494Y145415
X15262Y155934
X11303Y164719
X14478Y158369
X11303Y163703
X9615Y175223
X9133Y174741
X13162Y152527
X3683Y130556
X11684Y130556
X3683Y129286
X11049Y128016
X35560Y162687
X39434Y156337
X34798Y155956
X34798Y173101
X30988Y173736
X40704Y164021
X41910Y166434
X44005Y168656
X34544Y167386
X28448Y130556
X41148Y130556
X38608Y130556
X31750Y130556
X36068Y130556
X27813Y154686
X28067Y156972
X29083Y163195
X26543Y161036
X28067Y165862
X29972Y164846
X33528Y164719
X25908Y176276
X37338Y176276
X29337Y168910
X36703Y167386
X43307Y135890
X25908Y166116
X25908Y171196
X40513Y174117
X38608Y171196
X42418Y171196
X30988Y150876
X29718Y145542
X37973Y150749
X39497Y153797
X26543Y162687
X42418Y175006
X38989Y142113
X37338Y148336
X27749Y147638
X41529Y142113
X32893Y139446
X25908Y143256
X25908Y135636
X25273Y133731
X39116Y133350
X36703Y139446
X32893Y143256
X29718Y138176
X37338Y135636
X36576Y126746
X33528Y130556
X36703Y143256
X36068Y147066
X33401Y155956
X34798Y157353
X26670Y173736
X36068Y150876
X30988Y161671
X41148Y162306
X41402Y158496
X38862Y162941
X27813Y135001
X25908Y139446
X27813Y139446
X27813Y143256
X36068Y155956
X32512Y171450
X34798Y154686
X26543Y132461
X25908Y128651
X30988Y133477
X24765Y129921
X40894Y146304
X40386Y124587
X38545Y158052
X43180Y166307
X39924Y147701
X38100Y148463
X41783Y150709
X28448Y176276
X32512Y130556
X32385Y160401
X24765Y129159
X33147Y160020
X24765Y130683
X41699Y133766
X29718Y151488
X38862Y137668
X41910Y141351
X41910Y137795
X37846Y138811
X37846Y147701
X36495Y170236
X25677Y145415
X39243Y147701
X38427Y141025
X39116Y151511
X41275Y147701
X40958Y152527
X36703Y171196
X31242Y174498
X37338Y171704
X29083Y162433
X31369Y157734
X37211Y152527
X34798Y160528
X31468Y153571
X36449Y161671
X32004Y174244
X42418Y153416
X39878Y163576
X41656Y129159
X39920Y151513
X39855Y155512
X42012Y155956
X29718Y180721
X33550Y175746
X29083Y161544
X30226Y148590
X27940Y151448
X34290Y147701
X31750Y150502
X29157Y173736
X33147Y169164
X40132Y169101
X38862Y164338
X30988Y148336
X36068Y148336
X41783Y148400
X43053Y133604
X27813Y171196
X29718Y163576
X30988Y171196
X33147Y170815
X39878Y180721
X28321Y173228
X28321Y174244
X32131Y153035
X40223Y170815
X34862Y159830
X27913Y152129
X31750Y148590
X28956Y151488
X38862Y136652
X35306Y151412
X37366Y145177
X31115Y158750
X33528Y147701
X31991Y158864
X35306Y150622
X32695Y152021
X38672Y153797
X37846Y153416
X32014Y151742
X43117Y152654
X38862Y145415
X38630Y155934
X34671Y164719
X37846Y158369
X34671Y163703
X32983Y175223
X32501Y174741
X36530Y152527
X27051Y130556
X35052Y130556
X27051Y129286
X34417Y128016
X58928Y162687
X62801Y156337
X58166Y155956
X58166Y173101
X54356Y173736
X64071Y164021
X65278Y166434
X67374Y168656
X57912Y167386
X51816Y130556
X64516Y130556
X61976Y130556
X55118Y130556
X59436Y130556
X51181Y154686
X51435Y156972
X52451Y163195
X49911Y161036
X51435Y165862
X53340Y164846
X56896Y164719
X49276Y176276
X60706Y176276
X52705Y168910
X60071Y167386
X66675Y135890
X49276Y166116
X49276Y171196
X63881Y174117
X61976Y171196
X65786Y171196
X54356Y150876
X53086Y145542
X61341Y150749
X62865Y153797
X49911Y162687
X65786Y175006
X62357Y142113
X60706Y148336
X51117Y147638
X64897Y142113
X56261Y139446
X49276Y143256
X49276Y135636
X48641Y133731
X62484Y133350
X60071Y139446
X56261Y143256
X53086Y138176
X60706Y135636
X59944Y126746
X56896Y130556
X60071Y143256
X59436Y147066
X56769Y155956
X58166Y157353
X50038Y173736
X59436Y150876
X54356Y161671
X64516Y162306
X64770Y158496
X62230Y162941
X51181Y135001
X49276Y139446
X51181Y139446
X51181Y143256
X59436Y155956
X55880Y171450
X58166Y154686
X49911Y132461
X49276Y128651
X54356Y133477
X48133Y129921
X64262Y146304
X63754Y124587
X61912Y158052
X66548Y166307
X63292Y147701
X61468Y148463
X65151Y150709
X51816Y176276
X55880Y130556
X55753Y160401
X48133Y129159
X56515Y160020
X48133Y130683
X65067Y133766
X53086Y151488
X62230Y137668
X65278Y141351
X65278Y137795
X61214Y138811
X61214Y147701
X59863Y170236
X49045Y145415
X62611Y147701
X61794Y141025
X62484Y151511
X64643Y147701
X64325Y152527
X60071Y171196
X54610Y174498
X60706Y171704
X52451Y162433
X54737Y157734
X60579Y152527
X58166Y160528
X54836Y153571
X59817Y161671
X55372Y174244
X65786Y153416
X63246Y163576
X65024Y129159
X63288Y151513
X63223Y155512
X65380Y155956
X53086Y180721
X56918Y175746
X52451Y161544
X53594Y148590
X51308Y151448
X57658Y147701
X55118Y150502
X52525Y173736
X56515Y169164
X63500Y169101
X62230Y164338
X54356Y148336
X59436Y148336
X65151Y148400
X66421Y133604
X51181Y171196
X53086Y163576
X54356Y171196
X56515Y170815
X63246Y180721
X51689Y173228
X51689Y174244
X55499Y153035
X63591Y170815
X58229Y159830
X51281Y152129
X55118Y148590
X52324Y151488
X62230Y136652
X58674Y151412
X60734Y145177
X54483Y158750
X56896Y147701
X55359Y158864
X58674Y150622
X56063Y152021
X62039Y153797
X61214Y153416
X55382Y151742
X66485Y152654
X62230Y145415
X61998Y155934
X58039Y164719
X61214Y158369
X58039Y163703
X56351Y175223
X55869Y174741
X59898Y152527
X50419Y130556
X58420Y130556
X50419Y129286
X57785Y128016
X82296Y162687
X86170Y156337
X81534Y155956
X81534Y173101
X77724Y173736
X87439Y164021
X88646Y166434
X90741Y168656
X81280Y167386
X75184Y130556
X87884Y130556
X85344Y130556
X78486Y130556
X82804Y130556
X74549Y154686
X74803Y156972
X75819Y163195
X73279Y161036
X74803Y165862
X76708Y164846
X80264Y164719
X72644Y176276
X84074Y176276
X76073Y168910
X83439Y167386
X90043Y135890
X72644Y166116
X72644Y171196
X87249Y174117
X85344Y171196
X89154Y171196
X77724Y150876
X76454Y145542
X84709Y150749
X86233Y153797
X73279Y162687
X89154Y175006
X85725Y142113
X84074Y148336
X74486Y147638
X88265Y142113
X79629Y139446
X72644Y143256
X72644Y135636
X72009Y133731
X85852Y133350
X83439Y139446
X79629Y143256
X76454Y138176
X84074Y135636
X83312Y126746
X80264Y130556
X83439Y143256
X82804Y147066
X80137Y155956
X81534Y157353
X73406Y173736
X82804Y150876
X77724Y161671
X87884Y162306
X88138Y158496
X85598Y162941
X74549Y135001
X72644Y139446
X74549Y139446
X74549Y143256
X82804Y155956
X79248Y171450
X81534Y154686
X73279Y132461
X72644Y128651
X77724Y133477
X71501Y129921
X87630Y146304
X87122Y124587
X85281Y158052
X89916Y166307
X86660Y147701
X84836Y148463
X88519Y150709
X75184Y176276
X79248Y130556
X79121Y160401
X71501Y129159
X79883Y160020
X71501Y130683
X88435Y133766
X76454Y151488
X85598Y137668
X88646Y141351
X88646Y137795
X84582Y138811
X84582Y147701
X83231Y170236
X72413Y145415
X85979Y147701
X85163Y141025
X85852Y151511
X88011Y147701
X87693Y152527
X83439Y171196
X77978Y174498
X84074Y171704
X75819Y162433
X78105Y157734
X83947Y152527
X81534Y160528
X78204Y153571
X83185Y161671
X78740Y174244
X89154Y153416
X86614Y163576
X88392Y129159
X86656Y151513
X86591Y155512
X88748Y155956
X76454Y180721
X80286Y175746
X75819Y161544
X76962Y148590
X74676Y151448
X81026Y147701
X78486Y150502
X75893Y173736
X79883Y169164
X86868Y169101
X85598Y164338
X77724Y148336
X82804Y148336
X88519Y148400
X89789Y133604
X74549Y171196
X76454Y163576
X77724Y171196
X79883Y170815
X86614Y180721
X75057Y173228
X75057Y174244
X78867Y153035
X86959Y170815
X81598Y159830
X74649Y152129
X78486Y148590
X75692Y151488
X85598Y136652
X82042Y151412
X84102Y145177
X77851Y158750
X80264Y147701
X78727Y158864
X82042Y150622
X79431Y152021
X85408Y153797
X84582Y153416
X78750Y151742
X89852Y152654
X85598Y145415
X85366Y155934
X81407Y164719
X84582Y158369
X81407Y163703
X79719Y175223
X79237Y174741
X83266Y152527
X73787Y130556
X81788Y130556
X73787Y129286
X81153Y128016
X105664Y162687
X109537Y156337
X104902Y155956
X104902Y173101
X101092Y173736
X110807Y164021
X112014Y166434
X114109Y168656
X104648Y167386
X98552Y130556
X111252Y130556
X108712Y130556
X101854Y130556
X106172Y130556
X97917Y154686
X98171Y156972
X99187Y163195
X96647Y161036
X98171Y165862
X100076Y164846
X103632Y164719
X96012Y176276
X107442Y176276
X99441Y168910
X106807Y167386
X113411Y135890
X96012Y166116
X96012Y171196
X110617Y174117
X108712Y171196
X112522Y171196
X101092Y150876
X99822Y145542
X108077Y150749
X109601Y153797
X96647Y162687
X112522Y175006
X109093Y142113
X107442Y148336
X97853Y147638
X111633Y142113
X102997Y139446
X96012Y143256
X96012Y135636
X95377Y133731
X109220Y133350
X106807Y139446
X102997Y143256
X99822Y138176
X107442Y135636
X106680Y126746
X103632Y130556
X106807Y143256
X106172Y147066
X103505Y155956
X12192Y39751
X96774Y173736
X106172Y150876
X101092Y161671
X111252Y162306
X111506Y158496
X108966Y162941
X97917Y135001
X96012Y139446
X97917Y139446
X97917Y143256
X106172Y155956
X102616Y171450
X104902Y154686
X96647Y132461
X96012Y128651
X101092Y133477
X94869Y129921
X110998Y146304
X110490Y124587
X108648Y158052
X113284Y166307
X110028Y147701
X108204Y148463
X111887Y150709
X98552Y176276
X102616Y130556
X102489Y160401
X94869Y129159
X103251Y160020
X94869Y130683
X111803Y133766
X99822Y151488
X108966Y137668
X112014Y141351
X112014Y137795
X107950Y138811
X107950Y147701
X106599Y170236
X95781Y145415
X109347Y147701
X108530Y141025
X109220Y151511
X111379Y147701
X111061Y152527
X106807Y171196
X101346Y174498
X107442Y171704
X99187Y162433
X101473Y157734
X107315Y152527
X104902Y160528
X101572Y153571
X106553Y161671
X102108Y174244
X112522Y153416
X109982Y163576
X111760Y129159
X110024Y151513
X109959Y155512
X112116Y155956
X99822Y180721
X103654Y175746
X99187Y161544
X100330Y148590
X98044Y151448
X104394Y147701
X101854Y150502
X99261Y173736
X103251Y169164
X110236Y169101
X108966Y164338
X101092Y148336
X106172Y148336
X111887Y148400
X113157Y133604
X97917Y171196
X99822Y163576
X101092Y171196
X103251Y170815
X109982Y180721
X98425Y173228
X98425Y174244
X102235Y153035
X110327Y170815
X104965Y159830
X98017Y152129
X101854Y148590
X99060Y151488
X108966Y136652
X105410Y151412
X107470Y145177
X101219Y158750
X103632Y147701
X102095Y158864
X105410Y150622
X102799Y152021
X108775Y153797
X107950Y153416
X102118Y151742
X113220Y152654
X108966Y145415
X108734Y155934
X104775Y164719
X107950Y158369
X104775Y163703
X103087Y175223
X102605Y174741
X106634Y152527
X97155Y130556
X105156Y130556
X97155Y129286
X104521Y128016
X16065Y33401
X11430Y33020
X11430Y50165
X7620Y50800
X17336Y41085
X18542Y43498
X20638Y45720
X11176Y44450
X5080Y7620
X17780Y7620
X15240Y7620
X8382Y7620
X12700Y7620
X4445Y31750
X4699Y34036
X5715Y40259
X3175Y38100
X4699Y42926
X6604Y41910
X10160Y41783
X2540Y53340
X13970Y53340
X5969Y45974
X13335Y44450
X19939Y12954
X2540Y43180
X2540Y48260
X17145Y51181
X15240Y48260
X19050Y48260
X7620Y27940
X6350Y22606
X14605Y27813
X16129Y30861
X3175Y39751
X19050Y52070
X15621Y19177
X13970Y25400
X4382Y24701
X18161Y19177
X9525Y16510
X2540Y20320
X2540Y12700
X1905Y10795
X15748Y10414
X13335Y16510
X9525Y20320
X6350Y15240
X13970Y12700
X13208Y3810
X10160Y7620
X13335Y20320
X12700Y24130
X10033Y33020
X11430Y34417
X3302Y50800
X12700Y27940
X7620Y38735
X17780Y39370
X18034Y35560
X15494Y40005
X4445Y12065
X2540Y16510
X4445Y16510
X4445Y20320
X12700Y33020
X9144Y48514
X11430Y31750
X3175Y9525
X2540Y5715
X7620Y10541
X1397Y6985
X17526Y23368
X17018Y1651
X15176Y35116
X19812Y43371
X16556Y24765
X14732Y25527
X18415Y27772
X5080Y53340
X9144Y7620
X9017Y37465
X1397Y6223
X9779Y37084
X1397Y7747
X18331Y10830
X6350Y28552
X15494Y14732
X18542Y18415
X18542Y14859
X14478Y15875
X14478Y24765
X13127Y47300
X2309Y22479
X15875Y24765
X15058Y18089
X15748Y28575
X17907Y24765
X17590Y29591
X13335Y48260
X7874Y51562
X13970Y48768
X5715Y39497
X8001Y34798
X13843Y29591
X11430Y37592
X8100Y30635
X13081Y38735
X8636Y51308
X19050Y30480
X16510Y40640
X18288Y6223
X16552Y28577
X16487Y32575
X18644Y33020
X6350Y57785
X10182Y52810
X5715Y38608
X6858Y25654
X4572Y28511
X10922Y24765
X8382Y27566
X5789Y50800
X9779Y46228
X16764Y46164
X15494Y41402
X7620Y25400
X12700Y25400
X18415Y25463
X19685Y10668
X4445Y48260
X6350Y40640
X7620Y48260
X9779Y47879
X16510Y57785
X4953Y50292
X4953Y51308
X8763Y30099
X16855Y47879
X11493Y36894
X4545Y29192
X8382Y25654
X5588Y28552
X15494Y13716
X11938Y28476
X13998Y22241
X7747Y35814
X10160Y24765
X8623Y35928
X11938Y27686
X9327Y29085
X15303Y30861
X14478Y30480
X8646Y28806
X19749Y29718
X15494Y22479
X15262Y32998
X11303Y41783
X14478Y35433
X11303Y40767
X9615Y52287
X9133Y51805
X13162Y29591
X3683Y7620
X11684Y7620
X3683Y6350
X11049Y5080
X35560Y39751
X39434Y33401
X34798Y33020
X34798Y50165
X30988Y50800
X40704Y41085
X41910Y43498
X44005Y45720
X34544Y44450
X28448Y7620
X41148Y7620
X38608Y7620
X31750Y7620
X36068Y7620
X27813Y31750
X28067Y34036
X29083Y40259
X26543Y38100
X28067Y42926
X29972Y41910
X33528Y41783
X25908Y53340
X37338Y53340
X29337Y45974
X36703Y44450
X43307Y12954
X25908Y43180
X25908Y48260
X40513Y51181
X38608Y48260
X42418Y48260
X30988Y27940
X29718Y22606
X37973Y27813
X39497Y30861
X26543Y39751
X42418Y52070
X38989Y19177
X37338Y25400
X27749Y24701
X41529Y19177
X32893Y16510
X25908Y20320
X25908Y12700
X25273Y10795
X39116Y10414
X36703Y16510
X32893Y20320
X29718Y15240
X37338Y12700
X36576Y3810
X33528Y7620
X36703Y20320
X36068Y24130
X33401Y33020
X34798Y34417
X26670Y50800
X36068Y27940
X30988Y38735
X41148Y39370
X41402Y35560
X38862Y40005
X27813Y12065
X25908Y16510
X27813Y16510
X27813Y20320
X36068Y33020
X32512Y48514
X34798Y31750
X26543Y9525
X25908Y5715
X30988Y10541
X24765Y6985
X40894Y23368
X40386Y1651
X38545Y35116
X43180Y43371
X39924Y24765
X38100Y25527
X41783Y27772
X28448Y53340
X32512Y7620
X32385Y37465
X24765Y6223
X33147Y37084
X24765Y7747
X41699Y10830
X29718Y28552
X38862Y14732
X41910Y18415
X41910Y14859
X37846Y15875
X37846Y24765
X36495Y47300
X25677Y22479
X39243Y24765
X38427Y18089
X39116Y28575
X41275Y24765
X40958Y29591
X36703Y48260
X31242Y51562
X37338Y48768
X29083Y39497
X31369Y34798
X37211Y29591
X34798Y37592
X31468Y30635
X36449Y38735
X32004Y51308
X42418Y30480
X39878Y40640
X41656Y6223
X39920Y28577
X39855Y32575
X42012Y33020
X29718Y57785
X33550Y52810
X29083Y38608
X30226Y25654
X27940Y28511
X106599Y108768
X34290Y24765
X31750Y27566
X29157Y50800
X33147Y46228
X40132Y46164
X38862Y41402
X30988Y25400
X36068Y25400
X41783Y25463
X43053Y10668
X27813Y48260
X29718Y40640
X30988Y48260
X33147Y47879
X39878Y57785
X28321Y50292
X28321Y51308
X32131Y30099
X40223Y47879
X34862Y36894
X27913Y29192
X31750Y25654
X28956Y28552
X38862Y13716
X35306Y28476
X37366Y22241
X31115Y35814
X33528Y24765
X31991Y35928
X35306Y27686
X32695Y29085
X38672Y30861
X37846Y30480
X32014Y28806
X43117Y29718
X38862Y22479
X38630Y32998
X34671Y41783
X37846Y35433
X34671Y40767
X32983Y52287
X32501Y51805
X36530Y29591
X27051Y7620
X35052Y7620
X27051Y6350
X34417Y5080
X58928Y39751
X62801Y33401
X58166Y33020
X58166Y50165
X54356Y50800
X64071Y41085
X65278Y43498
X67374Y45720
X57912Y44450
X51816Y7620
X64516Y7620
X61976Y7620
X55118Y7620
X59436Y7620
X51181Y31750
X51435Y34036
X52451Y40259
X49911Y38100
X51435Y42926
X53340Y41910
X56896Y41783
X49276Y53340
X60706Y53340
X52705Y45974
X60071Y44450
X66675Y12954
X49276Y43180
X49276Y48260
X63881Y51181
X61976Y48260
X65786Y48260
X54356Y27940
X53086Y22606
X61341Y27813
X62865Y30861
X49911Y39751
X65786Y52070
X62357Y19177
X60706Y25400
X51117Y24701
X64897Y19177
X56261Y16510
X49276Y20320
X49276Y12700
X48641Y10795
X62484Y10414
X60071Y16510
X56261Y20320
X53086Y15240
X60706Y12700
X59944Y3810
X56896Y7620
X60071Y20320
X59436Y24130
X56769Y33020
X58166Y34417
X50038Y50800
X59436Y27940
X54356Y38735
X64516Y39370
X64770Y35560
X62230Y40005
X51181Y12065
X49276Y16510
X51181Y16510
X59436Y33020
X55880Y48514
X58166Y31750
X49911Y9525
X49276Y5715
X54356Y10541
X48133Y6985
X64262Y23368
X63754Y1651
X61912Y35116
X66548Y43371
X63292Y24765
X61468Y25527
X65151Y27772
X51816Y53340
X55880Y7620
X55753Y37465
X48133Y6223
X56515Y37084
X48133Y7747
X65067Y10830
X53086Y28552
X62230Y14732
X65278Y18415
X65278Y14859
X61214Y15875
X61214Y24765
X59863Y47300
X49045Y22479
X62611Y24765
X61794Y18089
X62484Y28575
X64643Y24765
X64325Y29591
X60071Y48260
X54610Y51562
X60706Y48768
X52451Y39497
X54737Y34798
X60579Y29591
X58166Y37592
X54836Y30635
X59817Y38735
X55372Y51308
X65786Y30480
X63246Y40640
X65024Y6223
X63288Y28577
X63223Y32575
X65380Y33020
X53086Y57785
X56918Y52810
X52451Y38608
X53594Y25654
X51308Y28511
X57658Y24765
X55118Y27566
X52525Y50800
X56515Y46228
X63500Y46164
X62230Y41402
X54356Y25400
X59436Y25400
X65151Y25463
X66421Y10668
X51181Y48260
X53086Y40640
X54356Y48260
X56515Y47879
X63246Y57785
X51689Y50292
X51689Y51308
X55499Y30099
X63591Y47879
X58229Y36894
X51281Y29192
X55118Y25654
X52324Y28552
X62230Y13716
X58674Y28476
X60734Y22241
X54483Y35814
X56896Y24765
X55359Y35928
X58674Y27686
X56063Y29085
X62039Y30861
X61214Y30480
X55382Y28806
X66485Y29718
X62230Y22479
X61998Y32998
X58039Y41783
X61214Y35433
X58039Y40767
X56351Y52287
X55869Y51805
X59898Y29591
X50419Y7620
X58420Y7620
X50419Y6350
X57785Y5080
X82296Y39751
X86170Y33401
X81534Y33020
X81534Y50165
X77724Y50800
X87439Y41085
X88646Y43498
X90741Y45720
X81280Y44450
X75184Y7620
X87884Y7620
X85344Y7620
X78486Y7620
X82804Y7620
X74549Y31750
X74803Y34036
X75819Y40259
X73279Y38100
X74803Y42926
X76708Y41910
X80264Y41783
X72644Y53340
X84074Y53340
X76073Y45974
X83439Y44450
X90043Y12954
X72644Y43180
X72644Y48260
X87249Y51181
X85344Y48260
X89154Y48260
X77724Y27940
X76454Y22606
X84709Y27813
X86233Y30861
X73279Y39751
X89154Y52070
X85725Y19177
X84074Y25400
X74486Y24701
X88265Y19177
X79629Y16510
X72644Y20320
X72644Y12700
X72009Y10795
X85852Y10414
X83439Y16510
X79629Y20320
X76454Y15240
X84074Y12700
X83312Y3810
X80264Y7620
X83439Y20320
X82804Y24130
X80137Y33020
X81534Y34417
X73406Y50800
X82804Y27940
X77724Y38735
X87884Y39370
X88138Y35560
X85598Y40005
X74549Y12065
X72644Y16510
X74549Y16510
X74549Y20320
X82804Y33020
X79248Y48514
X81534Y31750
X73279Y9525
X72644Y5715
X77724Y10541
X71501Y6985
X87630Y23368
X87122Y1651
X85281Y35116
X89916Y43371
X86660Y24765
X84836Y25527
X88519Y27772
X75184Y53340
X79248Y7620
X79121Y37465
X71501Y6223
X79883Y37084
X71501Y7747
X88435Y10830
X76454Y28552
X85598Y14732
X88646Y18415
X88646Y14859
X84582Y15875
X84582Y24765
X83231Y47300
X72413Y22479
X85979Y24765
X85163Y18089
X85852Y28575
X88011Y24765
X87693Y29591
X83439Y48260
X77978Y51562
X84074Y48768
X75819Y39497
X78105Y34798
X83947Y29591
X81534Y37592
X78204Y30635
X83185Y38735
X78740Y51308
X89154Y30480
X86614Y40640
X88392Y6223
X86656Y28577
X86591Y32575
X88748Y33020
X76454Y57785
X80286Y52810
X75819Y38608
X76962Y25654
X74676Y28511
X81026Y24765
X78486Y27566
X75893Y50800
X79883Y46228
X86868Y46164
X85598Y41402
X77724Y25400
X82804Y25400
X88519Y25463
X89789Y10668
X74549Y48260
X76454Y40640
X77724Y48260
X79883Y47879
X86614Y57785
X75057Y50292
X75057Y51308
X78867Y30099
X86959Y47879
X81598Y36894
X74649Y29192
X78486Y25654
X75692Y28552
X85598Y13716
X82042Y28476
X84102Y22241
X77851Y35814
X80264Y24765
X78727Y35928
X82042Y27686
X79431Y29085
X85408Y30861
X84582Y30480
X78750Y28806
X89852Y29718
X85598Y22479
X85366Y32998
X81407Y41783
X84582Y35433
X81407Y40767
X79719Y52287
X79237Y51805
X83266Y29591
X73787Y7620
X81788Y7620
X73787Y6350
X81153Y5080
X105664Y39751
X109537Y33401
X104902Y33020
X104902Y50165
X101092Y50800
X110807Y41085
X112014Y43498
X114109Y45720
X104648Y44450
X98552Y7620
X111252Y7620
X108712Y7620
X101854Y7620
X106172Y7620
X97917Y31750
X98171Y34036
X99187Y40259
X96647Y38100
X104902Y157353
M30